ply
format ascii 1.0
element vertex 453
property float x
property float y
property float z
property float confidence
element face 948
property list uchar int vertex_indices
end_header
-0.02839061 0.1252478 0.008551117 0.850855
-0.04770188 0.1353205 0.00868919 0.900159
-0.07052335 0.1475103 0.03972103 0.398443
-0.004712241 0.130172 0.0184383 0.85268
-0.0128345 0.127747 0.003916695 0.675938
0.03522427 0.1083911 0.03611625 0.652757
0.03525031 0.1062797 0.01375793 0.708171
-0.02713843 0.1026943 0.03740337 0.454541
0.0267172 0.1175814 0.01537359 0.533079
-0.06689963 0.1643803 -0.02082151 0.404517
0.045831 0.09617882 0.005205174 0.579563
-0.03143253 0.1717705 -0.008389913 0.365607
-0.08692713 0.1388057 0.04695353 0.499575
-0.06615556 0.1223194 0.05447048 0.564827
0.003787897 0.1349393 0.01682749 0.748371
0.04465317 0.1082192 0.004934364 0.680399
0.03899416 0.1066543 -0.008933567 0.600054
-0.08981904 0.1310581 0.01296316 0.824561
-0.08623038 0.1056549 0.03491833 0.690889
-0.07158704 0.155732 0.01308653 0.807492
-0.07554661 0.1575813 0.0273139 0.248168
0.006357674 0.1201707 0.0381364 0.555044
-0.05150635 0.1476035 0.01723247 0.691477
-0.08258529 0.1328661 0.05302664 0.566256
-0.001598982 0.1322524 0.02683868 0.271491
-0.04552796 0.1271439 0.02917412 0.539149
-0.08054839 0.09135389 -0.004160672 0.710999
0.02124075 0.127095 0.01519454 0.530957
-0.09339712 0.1186084 0.009972411 0.635593
-0.0275371 0.1775336 -0.003945866 0.269231
-0.07821606 0.1446464 0.04726408 0.414139
-0.0140483 0.1077246 0.04509656 0.482541
-0.01839041 0.1849937 -0.01934303 0.341071
-0.04054565 0.1678119 -0.008929379 0.396317
0.00229824 0.1322613 0.03240412 0.350014
-0.04421936 0.1314248 0.02134392 0.599596
0.02172992 0.1176726 0.03360496 0.625269
-0.04674903 0.1665053 0.0003935586 0.413994
-0.08924656 0.1301634 0.003932761 0.625486
-0.05328396 0.1416851 0.03068461 0.696873
0.04421664 0.08971336 0.01367341 0.665192
0.04558434 0.09702062 0.03116505 0.671611
-0.05389759 0.1533969 0.01872245 0.394763
-0.02329089 0.1577146 -0.008488584 0.136389
-0.0764654 0.06305573 0.01901419 0.413051
-0.064462 0.1515107 0.008135376 0.855717
-0.0947411 0.1210617 0.03785582 0.673877
0.02752983 0.1134903 0.03312014 0.635485
0.04488498 0.08903923 -0.008807343 0.585857
-0.06553684 0.1668686 -0.01713956 0.548789
-0.0102499 0.1253264 0.03618158 0.602316
0.02579612 0.09348071 0.03849662 0.649753
-0.0178987 0.1591725 -0.01884983 0.338176
-0.07384189 0.1720242 -0.03790533 0.256591
-0.08042277 0.1019641 -0.001085751 0.523819
0.03329778 0.1143426 0.01776619 0.52623
-0.002891922 0.03826907 0.05191709 0.280725
0.01062863 0.03874221 0.04254929 0.331809
-0.05929338 0.1544097 0.007503472 0.561042
-0.08794794 0.1229463 0.0287611 0.848517
-0.0587166 0.1288769 0.03855355 0.658867
-0.0216371 0.1294789 0.01746236 0.547632
-0.06859005 0.1564039 0.03117838 0.855321
-0.03986566 0.1702077 -0.0005799755 0.274377
-0.06192169 0.0445321 0.04534009 0.417977
-0.07212353 0.1605534 -0.01441087 0.267801
-0.03865176 0.1593604 0.009890663 0.447592
-0.03787585 0.04619816 0.04513851 0.509262
-0.02878042 0.08863478 0.0520515 0.608282
-0.01840905 0.1301595 0.02994182 0.420759
-0.0869634 0.08734915 0.008463319 0.753697
-0.07070083 0.1597792 -0.00958456 0.595216
-0.07222599 0.1401913 -0.009288659 0.446131
0.02036512 0.1035296 0.04302092 0.669811
-0.03868658 0.1759396 0.0006518968 0.438578
-0.0703024 0.1193907 -0.009410542 0.569796
-0.06381742 0.1713234 -0.04398467 0.381568
-0.08744816 0.1444135 0.01854738 0.648478
0.00523565 0.1108733 0.03815283 0.549283
0.02835282 0.09640203 -0.01681319 0.732658
0.005516958 0.1057195 0.04530586 0.592572
-0.07382634 0.1327509 0.04829926 0.563116
0.005114438 0.1262666 0.007013018 0.795238
0.0197981 0.04405756 0.04443684 0.259499
0.01587866 0.08782092 0.04943696 0.654705
-0.007698576 0.1177163 0.04147428 0.615633
-0.07692205 0.1149941 -0.001190146 0.505277
-0.08113055 0.1458053 -0.002042955 0.466714
0.003424849 0.1021024 -0.02057239 0.792948
-0.0233387 0.1217142 0.03657994 0.445477
-0.005164255 0.128831 0.002066757 0.738924
-0.09144443 0.1444106 0.02996471 0.80362
-0.00932896 0.1211568 -0.007057878 0.767738
-0.07419052 0.1837656 -0.05737679 0.245129
-0.03299369 0.1225668 0.02424131 0.32811
-0.0806373 0.1535734 0.03213467 0.331963
-0.09264017 0.09296305 0.02055212 0.603378
-0.02784516 0.1212223 -0.004499852 0.63839
-0.02710063 0.1221517 0.03504711 0.543293
-0.07758078 0.1235896 0.04843538 0.490413
0.03736783 0.1125473 -0.009459065 0.534403
-0.0669492 0.09287324 -0.01314161 0.511499
-0.07202021 0.08892082 -0.01706913 0.429902
-0.07893258 0.09474872 0.03101179 0.678588
-0.08889419 0.1348135 0.001880994 0.517441
-0.03288982 0.04405021 0.05323878 0.553401
-0.01435066 0.04231062 0.05271509 0.709553
-0.06847905 0.1677891 -0.05440148 0.549906
-0.03346992 0.1671176 -0.01657564 0.436075
-0.05193125 0.1332611 0.03164992 0.727547
-0.06324442 0.134242 0.04878925 0.724494
-0.04418818 0.1554018 -0.004312254 0.424682
-0.05344197 0.07304861 0.03864747 0.682177
-0.04559045 0.0872046 -0.02499904 0.72469
-0.01865162 0.09364947 0.04969968 0.546444
-0.0100697 0.09234466 0.05214699 0.455087
0.0432081 0.07160125 0.02885338 0.33948
0.03119188 0.1184965 -0.006263107 0.66246
-0.02935074 0.04164712 0.04498887 0.432059
-0.05686176 0.1187431 0.03662975 0.515399
0.04557179 0.07881659 -0.005219004 0.568535
0.02798744 0.03999347 0.02944138 0.650152
-0.02671545 0.09731964 -0.0213865 0.474586
0.03454114 0.1090966 0.02507713 0.534482
-0.02566598 0.08554609 -0.02997752 0.294426
-0.02117222 0.04173098 0.04601336 0.576068
-0.0007408352 0.04996516 0.05385905 0.495901
0.04534639 0.05069377 0.02731615 0.807573
-0.01968039 0.1809779 -0.01418047 0.246322
-0.006796841 0.05249939 0.049821 0.61481
0.008385263 0.057251 0.05130573 0.560812
-0.09278768 0.1012721 0.01361532 0.604102
-0.05471664 0.04982708 0.03015806 0
-0.02872793 0.05050991 0.0393207 0.676102
-0.005023617 0.106196 0.04485325 0.338462
-0.01752497 0.05274045 0.04326017 0.195646
-0.01505151 0.0541345 0.05066985 0.451613
-0.05586854 0.1475812 -0.002385129 0.48145
-0.0974457 0.1223651 0.01533136 0.570519
-0.0651655 0.1626543 -0.03331423 0.690546
-0.08231811 0.1040949 0.02154633 0.519516
0.03744698 0.05262623 0.03299239 0.609925
0.04436246 0.05918419 0.03000151 0.669803
-0.04067633 0.1147657 0.02706767 0.657986
-0.07001463 0.160082 -0.04135776 0.523327
0.02836282 0.1001362 0.03691589 0.689793
-0.02657058 0.1802821 -0.01845897 0.314049
-0.07725783 0.08822802 0.04053652 0.647987
-0.02181854 0.09793529 0.04382418 0.271215
-0.05654376 0.05706866 0.02825378 0.192432
-0.04439565 0.05072349 0.03963778 0.311543
-0.08093143 0.1136971 0.04564967 0.438131
0.01495766 0.1285776 0.02390145 0.479299
-0.03579345 0.1256209 0.02917371 0.514489
-0.05797701 0.1180245 0.04195408 0.634635
-0.0667941 0.1545916 -0.03618005 0.685413
-0.05726215 0.1540029 0.02963527 0.93076
-0.04581513 0.05498754 0.03527339 0.58186
-0.01419744 0.1814401 -0.02472823 0.400699
-0.08637208 0.1017016 0.003796486 0.477822
-0.07699098 0.1551736 0.003394784 0.57436
-0.03451041 0.1210833 0.01531211 0.393422
-0.08018192 0.1520057 0.01578559 0.505065
-0.08113335 0.1010056 -0.002627188 0.528684
-0.02332775 0.1267031 0.02621631 0.379391
-0.06957895 0.1638072 -0.055239 0.38665
-0.07519823 0.07056291 0.01401749 0.703257
-0.01275989 0.1772667 -0.02473796 0.379771
-0.05293916 0.05676377 0.006390843 0.270787
-0.01407665 0.1246086 -0.007277369 0.782181
-0.06908077 0.1506778 -0.02070081 0.130446
-0.04072602 0.1231401 -0.00524667 0.590842
-0.06535581 0.1511905 -0.02433471 0.690046
-0.0490506 0.05711501 0.01871237 0.079935
-0.01317721 0.06646221 0.05750842 0.608033
-0.003478974 0.06908791 0.05734167 0.650491
0.004715126 0.0702709 0.05809112 0.748671
-0.01764785 0.1166766 0.03887979 0.441459
0.05762251 0.05940555 0.0295793 0.405493
0.006298357 0.09229863 0.05523144 0.395048
-0.04271824 0.06889482 0.04174269 0.587502
-0.03397727 0.06886352 0.03749942 0.650585
-0.03462941 0.1621355 -0.010793 0.499753
-0.0562184 0.06155938 0.03434839 0.277414
-0.07302719 0.151044 -0.00582371 0.708579
-0.05569687 0.1238826 -0.0106183 0.538005
0.01517073 0.1051138 -0.02217398 0.576137
0.05563427 0.06081206 0.02550127 0.501229
-0.08608838 0.09754506 0.003668392 0.494536
-0.07147405 0.1614806 -0.03028427 0.476378
-0.04268824 0.1231956 -0.007691517 0.853498
-0.03409402 0.07705582 0.0444672 0.693464
-0.05256541 0.1105831 -0.01726007 0.484023
-0.06886764 0.1094426 -0.009804048 0.44421
-0.05137504 0.09647201 -0.01665168 0.619673
-0.04844167 0.06434839 0.04006603 0.829801
-0.0428104 0.1449315 0.004076051 0.636632
-0.07571854 0.1334772 -0.005035864 0.386393
-0.03899976 0.1055144 -0.02303155 0.79815
-0.008745536 0.09721301 -0.03022902 0.564234
-0.007652082 0.110773 -0.01961208 0.740261
-0.02893822 0.1589008 -0.007168872 0.209483
-0.01801569 0.1031993 -0.02055543 0.723165
-0.08436088 0.1393778 0.03799745 0.651389
-0.06383916 0.1294574 -0.01152779 0.737784
0.04335933 0.07024837 0.01777318 0.461473
-0.03919096 0.1180949 -0.0131157 0.602235
-0.01005688 0.1631296 -0.0189379 0.359593
-0.05806559 0.1548823 -0.002182786 0.292939
0.009546802 0.08840363 -0.03174679 0.75972
-0.07347163 0.07542945 0.02766887 0.757943
-0.06302889 0.1466646 -0.01069918 0.415531
-0.06741131 0.07152492 0.03054211 0.49936
-0.05659631 0.07740116 -0.01551388 0.75515
-0.03968249 0.07757628 0.04670754 0.696934
-0.02084493 0.07872836 0.05821168 0.607912
-0.00234314 0.07567806 0.0622672 0.791265
0.01131024 0.08337837 0.05705065 0.523043
-0.08835524 0.1438568 0.002700202 0.583528
0.03377349 0.1116583 -0.0003172902 0.516602
-0.06383915 0.07760712 0.03697759 0.610448
-0.0596941 0.07586765 0.03867216 0.634349
0.04229781 0.08959105 -0.01424902 0.676152
-0.06857813 0.04078407 0.03563257 0.532543
-0.07050375 0.1685003 -0.03239444 0.458525
-0.05767209 0.1531817 -0.02286053 0.443336
-0.06693764 0.1592671 -0.03896715 0.427869
-0.06615258 0.09550943 0.04151624 0.59211
-0.05399634 0.1442777 0.01335933 0.761861
-0.07679979 0.1071355 0.04202408 0.498936
0.02183503 0.07755086 0.05388407 0.491924
0.0008289991 0.1220758 -0.008503932 0.555015
-0.05369027 0.0965539 0.04687401 0.778337
-0.045063 0.09615728 0.04508812 0.605881
-0.02676889 0.09199174 0.04700528 0.668172
0.01612989 0.08802411 0.04612314 0.678548
0.01465149 0.1242357 0.001140472 0.595962
-0.03343198 0.1076102 -0.0243862 0.809584
0.01410452 0.09926622 0.05165423 0.669841
-0.008317069 0.1163125 -0.0117527 0.826286
-0.05197325 0.1593374 0.003837222 0.343566
0.04006847 0.09901489 -0.01226925 0.738943
-0.08891243 0.1322375 0.02979593 0.816274
-0.06653815 0.1045937 0.03762485 0.481571
-0.03984842 0.1000845 0.04055235 0.648927
0.007722147 0.09540714 0.04730096 0.46146
-0.05369706 0.1019697 0.04015036 0.529374
-0.06921418 0.1151504 0.04879924 0.429195
-0.05300716 0.1386549 0.004620043 0.569746
-0.05361506 0.1300011 -0.002262366 0.673026
-0.01122789 0.1853482 -0.03111633 0.40888
-0.0278784 0.1599978 -0.01332917 0.852313
-0.05868329 0.114757 0.0376396 0.588374
-0.04084018 0.1062284 0.03465058 0.553647
-0.03169517 0.1115821 0.04094192 0.565129
0.02737077 0.1152006 0.04005921 0.631257
-0.05154785 0.1460334 -0.003785765 0.521986
-0.01846816 0.03028696 0.04603243 0.291685
-0.01463914 0.1725666 -0.02018544 0.809186
-0.06116462 0.03461631 0.0424458 0.341981
0.0100672 0.03494408 0.03900123 0.261253
-0.04535382 0.03100151 0.03712115 0.193197
-0.07053342 0.1058894 -0.01274465 0.608847
0.02240614 0.04958839 0.04273415 0.444171
0.04072015 0.08428952 -0.01439523 0.644934
-0.08206158 0.08055753 0.013703 0.67606
0.04921444 0.05181572 0.02062757 0.342211
0.0146572 0.05806785 0.04909142 0.589102
0.01042258 0.1156362 -0.01755223 0.54369
-0.03369826 0.1595333 -0.003073357 0.445666
0.03123152 0.06125314 0.03749651 0.635463
0.06161183 0.05981269 0.01399221 0.474964
0.01642914 0.09185963 -0.028495 0.546403
0.01281763 0.06011719 0.04951308 0.387785
0.03253745 0.08811816 0.03762972 0.726421
-0.01828132 0.1627735 -0.01248993 0.688671
0.0158539 0.07154253 0.04821169 0.554385
0.02134125 0.06979936 0.04554323 0.414803
0.03255966 0.07242583 0.04004063 0.611901
0.03698516 0.06323215 0.03286187 0.593561
0.0570013 0.06533746 0.0161355 0.550839
0.03102178 0.07659116 -0.02260638 0.760295
-0.07976489 0.1772019 -0.05563935 0.340571
-0.06273709 0.05663035 0.01719019 0.414933
-0.07650033 0.08329377 0.03351092 0.756683
0.01444673 0.1171327 -0.003273677 0.549
0.03496266 0.07631743 0.04342145 0.572664
0.03815071 0.07812836 0.03288895 0.505468
0.04233073 0.0815945 0.03097519 0.645662
0.04680878 0.08259366 0.01683555 0.458504
-0.07589967 0.06799456 0.01107136 0.704234
-0.0334238 0.1147359 -0.01596449 0.856895
-0.08451962 0.1123912 0.007183682 0.344807
-0.01090398 0.1775057 -0.02163889 0.439072
0.01764088 0.03656514 -0.003784244 0
0.01700223 0.03587151 -0.01496652 0.173751
0.02188426 0.03112696 0.03303901 0.156956
0.03999382 0.03750011 0.006796225 0.245023
0.02606191 0.0433793 -0.01097646 0.173629
0.02080187 0.03962225 -0.01685639 0.367832
0.04534763 0.04168586 -0.005415235 0.514406
0.04139571 0.04099457 0.01374233 0.265572
0.05286363 0.04427326 0.002802548 0.199267
0.02864685 0.1024002 -0.009768089 0.728425
0.02709599 0.04887589 -0.003395303 0.464947
-0.0169666 0.09541597 -0.03279739 0.520871
-0.02980844 0.03163078 -0.02467396 0.16856
0.02916807 0.05091575 -0.01528581 0.515417
0.05632377 0.06392233 0.00862954 0.629664
0.05478172 0.05771064 -0.001305778 0.592036
0.06053759 0.04998994 0.002967723 0.511629
0.04140276 0.05211847 -0.009319819 0.434179
-0.06052848 0.1662091 -0.05328608 0.538383
0.0378072 0.05243472 -0.0134766 0.591066
0.03257589 0.05209814 -0.0165115 0.574224
-0.01912074 0.1148988 -0.01328661 0.559736
-0.04078735 0.03348209 -0.02746831 0.0979878
-0.005867399 0.04706149 -0.03165095 0.274297
-0.06679938 0.0361134 -0.0003543634 0.135623
0.04478555 0.06914172 0.005142558 0.590477
0.02292549 0.08328351 -0.02712699 0.759593
-0.03010084 0.04509753 -0.0320571 0.537642
0.02540076 0.04851136 -0.02379054 0.56032
-0.03030793 0.03309251 0.04726058 0.96808
0.01400562 0.1196377 -0.01951682 0.45799
0.03361327 0.0695032 -0.01526703 0.581486
0.04641977 0.06296739 -0.008761419 0.572144
0.05509975 0.05985754 0.001002636 0.518067
-0.08896916 0.133251 0.03987487 0.633972
0.04922396 0.07928905 0.007475403 0.323813
-0.07149062 0.1520161 -0.03480866 0.143598
-0.0464146 0.04640406 -0.02069387 0.371561
-0.07349574 0.1760865 -0.04572392 0.498199
-0.07464922 0.1772234 -0.04682055 0.200482
0.0308287 0.1180957 0.007909056 0.517745
-0.0802288 0.1653928 -0.03482137 0.259817
0.0176304 0.09230197 -0.0218026 0.630702
-0.02698826 0.07706125 0.05258547 0.764034
-0.0666189 0.03459002 0.01636722 0.352362
-0.06167405 0.0310224 0.02495276 0.161121
-0.06421409 0.04632553 0.03423773 0.206373
-0.06572753 0.03202746 0.0366342 0.349097
-0.06576902 0.03756775 0.005294815 0.228898
-0.07155002 0.04072179 0.009545808 0.30841
-0.05634565 0.0391887 0.01928845 0
-0.05977231 0.03752444 0.01888214 0.258252
-0.06128113 0.05016424 0.002878624 0.460736
-0.02305998 0.0651985 0.04405444 0.709715
-0.05895047 0.07636542 0.04039638 0.556494
-0.02377287 0.07621788 -0.04254652 0.500126
-0.04732343 0.03835091 -0.01515137 0.176398
-0.009703836 0.03147801 -0.02102566 0.15305
-0.06994233 0.04206111 -0.001234024 0.169982
-0.03879134 0.04101158 -0.02678901 0.3765
-0.05502523 0.04664192 -0.006570071 0.62257
-0.0399529 0.04505987 -0.01297447 0.340556
-0.03247776 0.04928481 -0.02103668 0.299501
-0.02642996 0.05491305 -0.01967191 0.265727
-0.03889364 0.05222214 -0.007135791 0.555432
-0.05081445 0.05357342 -0.001557707 0.527245
-0.02297654 0.05278015 -0.02398262 0.366688
-0.06017164 0.117549 -0.008690454 0.568329
-0.01779062 0.05254139 -0.03498212 0.484351
-0.07339794 0.07115618 -0.008930551 0.168435
-0.06933012 0.06392506 0.007746815 0.275779
-0.01897085 0.06780668 -0.03870151 0.45692
-0.02770114 0.0686666 -0.024475 0.452259
-0.02784518 0.06154939 -0.02019277 0.908229
-0.02176795 0.03858609 -0.02727693 0.174612
-0.07945813 0.07626734 -0.006451472 0.293636
0.01396872 0.128401 -0.005803664 0.542796
-0.08063039 0.08203816 0.0003765621 0.615888
-0.08258469 0.08371934 -0.01128884 0.260107
-0.02671901 0.0759524 -0.02985552 0.64535
-0.03775556 0.08550152 -0.02093176 0.930953
-0.06485479 0.07667472 -0.01595057 0.485274
-0.05176639 0.03035611 -0.01567152 0.159841
0.0158049 0.08093685 -0.02560956 0.750174
-0.01558111 0.09202252 -0.03446144 0.689122
-0.02043877 0.04000876 -0.02372949 0.230538
-0.01515885 0.09652674 -0.02732032 0.661276
-0.05439299 0.03235279 -0.004911331 0.1361
0.007044624 0.09662979 -0.02443159 0.732067
-0.01338854 0.121248 -0.0005803491 0.467449
0.01772168 0.05714832 -0.0260809 0.685576
-0.007783408 0.07682455 -0.03403236 0.670336
0.008124974 0.03877753 -0.01970725 0.540697
0.01590546 0.06618568 -0.03217224 0.690366
-0.008355424 0.124897 -0.001471988 0.714685
0.005442195 0.1244281 -0.007924745 0.574275
0.008378067 0.03351321 -0.02080911 0.278473
0.02627346 0.03104582 0.001186404 0.290019
0.006489384 0.04626782 -0.02392666 0.665265
0.01474273 0.04459483 -0.0276814 0.546545
0.003395211 0.05894843 -0.02646085 0.840924
-0.00636563 0.05703187 -0.03346326 0.634884
-0.03025697 0.05675842 -0.01557036 0.102172
-0.00918123 0.06937519 -0.03213335 0.670518
0.005140028 0.06540374 -0.03577249 0.79033
-0.05610783 0.06318861 -0.009999504 0.452904
-0.03756142 0.07014289 -0.01238698 0.543504
-0.0127221 0.07199242 -0.0366885 0.581028
-0.05543068 0.07119497 -0.01313474 0.401473
-0.06138665 0.07263626 -0.01562899 0.437166
0.006528492 0.07939181 -0.03027696 0.719764
-0.005146741 0.08495995 -0.04072631 0.799862
-0.02202683 0.0769342 -0.036343 0.39297
-0.04197835 0.08337884 -0.01959738 0.273711
-0.0715289 0.07409105 -0.009360878 0.445372
-0.0229832 0.03623383 -0.02221445 0.319674
-0.03134971 0.03557916 -0.01477588 0.482378
-0.009347929 0.03439175 -0.0116092 0.909294
-0.01721202 0.04250971 -0.01269131 0.887215
0.004470111 0.03303922 -0.008586317 0.962688
0.006577127 0.03452327 -0.01185934 0.927286
-0.004157741 0.03606586 -0.004762345 0.816802
-0.0153988 0.04148815 -0.001448588 0.759701
-0.04157436 0.03219898 -0.003391258 0.772585
0.02176709 0.0310089 0.001539105 0.579133
-0.03109687 0.03661815 -0.002232356 0.752109
0.008667141 0.03125776 0.009258195 0.588251
0.005849812 0.04191886 -0.0001472742 0.441385
-0.001777497 0.04042805 0.006480944 0.728422
-0.04591283 0.02931487 0.002047962 0.266658
-0.02020217 0.03363313 0.004072343 0.753895
0.02845069 0.03731658 0.01409999 0.360666
-0.05735466 0.03449237 0.007970159 0.742717
-0.02774208 0.03628933 0.003765929 0.456211
0.0006855098 0.03541924 0.00615074 0.779853
0.02418186 0.03345766 0.02331033 0.180494
-0.03795508 0.03070848 0.004639926 0.152905
0.0009648087 0.03544558 0.01399834 0.676527
0.002305031 0.0315688 0.00924287 0.848157
0.03610311 0.03518279 0.02590361 0.70177
-0.002890164 0.03882072 0.01415088 0.797449
-0.03576127 0.03605001 0.01694121 0.572312
-0.02245261 0.0363211 0.0217156 0.753708
-0.02769418 0.04023151 0.01427995 0.146481
-0.05314723 0.03695235 0.01983326 0.458851
-0.002405129 0.03958588 0.02128068 0.978558
0.008428507 0.03989253 0.02845475 0.701449
0.009754455 0.03395647 0.02973707 0.996029
-0.01028973 0.03512124 0.03060596 0.805634
-0.03483354 0.03164376 0.0275951 0.263742
-0.02388822 0.03582303 0.02834922 0.074682
-0.01803271 0.04027244 0.03368716 0.782021
-0.0389391 0.03495625 0.02852049 0.109729
0.0157166 0.03777359 0.04017808 0.759188
-0.05668036 0.03372426 0.0321997 0.808252
-0.07037687 0.06452245 0.006437456 0.442355
-0.01148486 0.03224399 0.04743161 0.139343
-0.03531747 0.03704256 0.03873482 0.154826
-0.02139163 0.03277792 0.0505693 0.143796
3 164 94 98
3 224 335 49
3 331 350 376
3 124 122 237
3 61 89 69
3 61 161 94
3 24 89 50
3 109 25 35
3 27 34 152
3 444 443 435
3 94 35 153
3 3 61 69
3 24 69 89
3 38 218 104
3 22 42 39
3 14 24 34
3 290 166 371
3 226 76 224
3 204 197 72
3 82 3 14
3 13 81 23
3 99 13 23
3 23 110 30
3 110 2 30
3 166 265 371
3 90 61 3
3 34 24 50
3 293 167 207
3 80 78 85
3 61 94 164
3 84 238 80
3 4 161 61
3 132 149 64
3 196 22 228
3 59 46 242
3 179 84 80
3 265 96 371
3 52 258 207
3 121 127 141
3 343 168 346
3 232 227 220
3 232 243 227
3 232 246 243
3 57 126 56
3 57 130 126
3 221 232 220
3 4 61 90
3 134 80 85
3 176 217 175
3 4 0 161
3 78 21 50
3 126 130 129
3 56 126 129
3 111 182 201
3 96 70 371
3 89 164 98
3 123 6 55
3 197 87 72
3 416 419 412
3 245 80 179
3 21 78 36
3 61 164 89
3 67 132 64
3 150 149 132
3 384 387 325
3 214 221 112
3 214 233 232
3 221 214 232
3 244 246 232
3 233 244 232
3 244 252 246
3 244 143 119
3 252 244 119
3 127 142 141
3 67 150 132
3 82 90 3
3 112 180 214
3 244 253 143
3 111 201 269
3 37 74 63
3 133 150 67
3 118 133 67
3 133 180 150
3 191 214 180
3 181 191 180
3 191 234 233
3 214 191 233
3 234 244 233
3 234 7 244
3 244 98 253
3 253 98 143
3 216 217 115
3 181 180 133
3 15 16 219
3 254 98 244
3 7 254 244
3 74 11 63
3 14 3 24
3 3 69 24
3 217 216 175
3 85 78 50
3 73 78 80
3 7 98 254
3 105 133 118
3 1 248 196
3 48 241 100
3 42 156 39
3 149 173 344
3 135 133 105
3 106 135 105
3 31 7 234
3 148 31 234
3 89 98 7
3 31 89 7
3 235 84 230
3 14 27 236
3 106 125 135
3 19 20 62
3 131 54 159
3 34 50 21
3 82 14 236
3 201 52 43
3 310 308 280
3 131 159 54
3 271 310 280
3 27 14 34
3 177 89 31
3 238 73 80
3 130 176 175
3 354 331 381
3 129 130 175
3 125 136 135
3 251 52 201
3 106 56 125
3 56 129 136
3 125 56 136
3 129 175 174
3 136 129 174
3 175 216 215
3 174 175 215
3 115 114 215
3 216 115 215
3 134 85 31
3 85 177 31
3 50 89 177
3 85 50 177
3 179 80 245
3 400 407 367
3 263 83 121
3 217 179 115
3 149 132 64
3 178 187 116
3 142 178 116
3 326 120 319
3 57 83 267
3 304 391 294
3 355 354 359
3 128 29 11
3 267 273 130
3 48 16 10
3 301 302 266
3 196 66 22
3 230 84 217
3 247 13 243
3 110 81 13
3 271 178 266
3 110 13 247
3 278 277 267
3 48 10 329
3 258 11 275
3 1 196 228
3 154 247 243
3 154 110 247
3 263 141 270
3 154 60 110
3 60 154 110
3 154 60 110
3 11 74 37
3 274 5 51
3 252 154 243
3 119 252 243
3 109 110 60
3 39 2 110
3 109 39 110
3 32 128 29
3 32 128 11
3 309 300 311
3 252 119 154
3 73 145 255
3 67 64 259
3 32 29 128
3 258 275 43
3 154 119 60
3 119 109 60
3 137 256 248
3 270 267 83
3 235 238 84
3 267 130 57
3 258 32 11
3 302 310 271
3 51 238 235
3 266 302 271
3 5 36 255
3 51 235 230
3 51 145 73
3 286 51 230
3 287 274 286
3 119 25 109
3 10 40 289
3 120 48 329
3 274 51 286
3 276 230 217
3 10 16 15
3 51 5 145
3 43 11 201
3 176 276 217
3 143 25 119
3 158 207 167
3 360 321 357
3 130 273 276
3 122 198 237
3 270 278 267
3 77 218 38
3 15 6 40
3 280 187 178
3 271 280 178
3 258 207 32
3 66 58 22
3 279 287 278
3 155 139 172
3 121 141 263
3 288 41 274
3 287 288 274
3 276 176 130
3 289 288 205
3 274 41 5
3 288 287 279
3 329 10 289
3 16 100 219
3 127 178 142
3 273 267 276
3 252 119 243
3 116 279 141
3 41 123 5
3 116 288 279
3 142 116 141
3 207 158 32
3 276 277 230
3 101 102 163
3 299 298 294
3 287 286 278
3 5 255 145
3 131 159 70
3 275 11 43
3 32 158 250
3 205 288 116
3 73 36 78
3 120 329 319
3 297 391 300
3 84 179 217
3 17 77 38
3 255 36 73
3 263 270 83
3 249 248 1
3 286 230 277
3 11 37 66
3 43 52 258
3 267 277 276
3 279 278 270
3 141 279 270
3 51 73 238
3 47 36 5
3 201 66 269
3 201 11 66
3 309 310 302
3 300 309 302
3 182 33 251
3 278 286 277
3 243 246 252
3 416 427 419
3 96 131 70
3 66 256 111
3 65 335 189
3 113 374 407
3 144 139 155
3 226 224 139
3 358 400 396
3 30 91 203
3 226 139 144
3 46 328 242
3 307 304 298
3 70 159 54
3 103 265 284
3 443 261 446
3 17 38 28
3 88 200 239
3 72 170 211
3 138 17 28
3 35 1 228
3 295 299 294
3 18 131 140
3 18 59 131
3 207 258 52
3 188 70 54
3 104 87 197
3 222 48 120
3 325 326 311
3 326 281 120
3 54 159 292
3 386 299 295
3 138 59 17
3 48 100 16
3 59 242 17
3 296 121 83
3 10 15 40
3 242 91 17
3 225 9 211
3 314 322 384
3 326 325 281
3 170 225 211
3 17 91 77
3 144 76 226
3 155 9 225
3 159 131 28
3 172 139 170
3 131 138 28
3 281 264 120
3 264 222 120
3 139 155 225
3 139 225 170
3 314 325 313
3 386 295 390
3 292 159 28
3 132 149 344
3 424 427 416
3 49 335 65
3 314 313 304
3 111 269 66
3 9 71 72
3 211 9 72
3 306 316 353
3 307 314 304
3 325 311 313
3 40 41 288
3 289 40 288
3 40 6 41
3 6 123 41
3 22 39 109
3 165 312 76
3 299 307 298
3 144 165 76
3 312 107 76
3 376 381 331
3 165 107 312
3 155 172 330
3 35 228 22
3 45 184 160
3 42 62 156
3 2 39 62
3 58 42 22
3 49 71 9
3 280 116 187
3 280 205 116
3 155 330 144
3 280 289 205
3 319 280 308
3 162 77 20
3 20 77 91
3 329 289 280
3 319 329 280
3 156 62 39
3 372 408 375
3 190 1 0
3 1 35 0
3 42 19 62
3 35 161 0
3 190 0 97
3 35 22 109
3 76 53 224
3 161 35 94
3 49 9 155
3 224 49 155
3 29 63 11
3 160 162 19
3 76 333 53
3 153 25 143
3 71 49 65
3 2 20 30
3 62 20 2
3 55 8 5
3 169 0 4
3 6 8 55
3 35 25 153
3 160 218 162
3 218 77 162
3 15 334 6
3 334 8 6
3 332 76 93
3 8 47 5
3 98 153 143
3 94 153 98
3 219 334 15
3 332 333 76
3 93 76 107
3 100 334 219
3 160 19 45
3 19 162 20
3 340 132 344
3 45 19 42
3 27 47 8
3 27 36 47
3 80 115 179
3 45 42 58
3 71 184 45
3 236 27 8
3 334 236 8
3 332 93 333
3 27 152 36
3 223 64 340
3 236 334 117
3 152 21 36
3 134 148 115
3 115 148 114
3 152 34 21
3 5 123 55
3 337 68 191
3 333 93 282
3 256 66 196
3 135 174 347
3 183 180 195
3 117 285 236
3 182 111 63
3 354 318 352
3 114 234 68
3 71 65 184
3 135 136 174
3 191 215 337
3 337 215 114
3 63 33 182
3 133 135 181
3 135 347 181
3 110 23 81
3 157 180 183
3 149 157 183
3 227 147 220
3 12 23 30
3 151 99 46
3 174 215 191
3 99 328 46
3 114 148 234
3 149 150 157
3 220 147 284
3 79 186 336
3 68 234 191
3 396 357 356
3 99 23 12
3 328 99 12
3 337 114 68
3 356 358 396
3 338 343 342
3 223 340 339
3 265 103 96
3 341 223 339
3 347 174 191
3 182 251 201
3 134 115 80
3 12 30 203
3 345 343 338
3 147 227 103
3 33 108 251
3 95 20 91
3 181 347 191
3 345 346 343
3 157 150 180
3 103 227 18
3 66 240 58
3 345 344 346
3 146 32 108
3 445 125 444
3 30 95 91
3 124 373 374
3 137 249 72
3 344 345 338
3 344 168 346
3 12 203 328
3 284 147 103
3 240 66 37
3 344 173 168
3 314 384 322
3 107 282 93
3 76 53 107
3 107 53 282
3 282 53 333
3 165 76 107
3 315 202 291
3 165 144 76
3 407 374 367
3 144 53 76
3 388 389 92
3 155 144 330
3 144 224 53
3 432 431 434
3 155 189 144
3 144 189 224
3 189 335 53
3 224 189 53
3 146 29 32
3 382 88 209
3 331 316 350
3 331 353 316
3 357 367 366
3 360 357 366
3 367 374 373
3 366 367 373
3 373 407 374
3 388 92 169
3 170 65 155
3 155 65 189
3 328 203 91
3 413 421 414
3 356 331 358
3 242 328 91
3 168 343 346
3 113 198 122
3 124 113 122
3 239 200 315
3 331 356 357
3 372 26 102
3 375 372 102
3 26 163 102
3 408 372 375
3 72 87 65
3 170 72 65
3 87 184 65
3 63 108 11
3 63 29 108
3 370 285 231
3 389 370 231
3 131 18 140
3 33 63 108
3 368 306 321
3 374 113 124
3 285 324 268
3 231 285 268
3 336 272 186
3 224 155 139
3 363 369 372
3 86 193 163
3 208 63 111
3 380 305 202
3 356 357 321
3 346 354 352
3 346 168 354
3 168 359 354
3 364 290 369
3 363 364 369
3 290 371 372
3 369 290 372
3 371 70 26
3 372 371 26
3 70 188 26
3 188 54 26
3 54 163 26
3 54 86 163
3 54 28 86
3 28 38 86
3 38 197 86
3 38 104 197
3 104 218 87
3 218 160 87
3 160 184 87
3 58 240 208
3 240 37 63
3 208 240 63
3 340 64 132
3 343 168 346
3 400 367 357
3 396 400 357
3 54 292 28
3 96 103 18
3 346 168 343
3 249 137 248
3 200 209 199
3 79 222 281
3 327 308 309
3 343 346 352
3 383 388 169
3 200 88 209
3 285 186 324
3 241 48 79
3 16 100 79
3 303 100 79
3 323 105 451
3 100 303 186
3 100 16 79
3 321 353 331
3 236 285 370
3 389 231 92
3 100 285 117
3 108 63 11
3 186 303 79
3 88 382 209
3 82 236 389
3 100 241 79
3 45 72 71
3 0 169 97
3 45 137 72
3 285 100 186
3 137 45 58
3 199 378 305
3 208 137 58
3 356 331 357
3 305 380 202
3 378 349 305
3 169 92 315
3 192 262 75
3 361 192 75
3 291 202 237
3 258 293 207
3 272 79 377
3 324 186 268
3 268 186 88
3 90 389 388
3 169 315 291
3 97 169 291
3 79 320 377
3 4 383 169
3 379 317 368
3 200 202 315
3 92 239 315
3 306 353 321
3 370 389 236
3 48 222 79
3 206 361 185
3 361 206 185
3 92 231 239
3 356 321 331
3 190 171 185
3 249 190 185
3 206 198 361
3 198 192 361
3 90 388 383
3 305 124 237
3 327 311 326
3 4 90 383
3 190 249 1
3 206 361 185
3 171 206 185
3 202 305 237
3 108 29 146
3 308 310 309
3 334 100 117
3 90 82 389
3 79 336 186
3 224 53 335
3 354 381 318
3 231 268 239
3 186 272 209
3 88 186 209
3 200 199 202
3 327 326 319
3 308 327 319
3 309 311 327
3 435 443 446
3 199 305 202
3 97 171 190
3 171 97 206
3 97 291 206
3 237 198 206
3 291 237 206
3 406 124 305
3 399 402 400
3 373 374 407
3 300 304 311
3 304 313 311
3 407 213 113
3 208 111 256
3 403 402 399
3 363 403 399
3 29 128 32
3 403 375 402
3 363 399 359
3 194 192 198
3 193 86 75
3 400 213 407
3 272 336 79
3 79 281 320
3 300 302 297
3 294 298 304
3 299 322 314
3 307 299 314
3 322 384 314
3 377 281 325
3 387 377 325
3 281 377 320
3 355 358 331
3 101 102 262
3 363 375 403
3 197 204 75
3 102 101 262
3 299 384 322
3 262 163 193
3 318 343 352
3 299 322 384
3 299 393 322
3 322 393 384
3 137 208 256
3 86 197 75
3 186 79 336
3 222 264 281
3 185 361 75
3 365 360 366
3 386 392 393
3 299 386 393
3 393 392 384
3 392 394 384
3 394 398 387
3 384 394 387
3 404 377 387
3 398 404 387
3 404 209 377
3 209 272 377
3 399 400 358
3 359 399 358
3 101 163 262
3 262 193 75
3 102 101 375
3 204 72 249
3 31 148 134
3 424 437 427
3 359 358 355
3 400 402 213
3 204 249 185
3 351 317 386
3 390 351 386
3 317 392 386
3 392 317 394
3 317 395 394
3 395 397 398
3 394 395 398
3 397 405 404
3 398 397 404
3 199 209 404
3 405 199 404
3 268 88 239
3 75 204 185
3 318 352 354
3 243 18 227
3 397 385 405
3 385 199 405
3 262 192 194
3 101 262 194
3 18 131 96
3 349 378 199
3 385 349 199
3 250 158 167
3 293 250 167
3 379 362 395
3 317 379 395
3 395 362 397
3 362 365 397
3 365 401 397
3 401 349 385
3 397 401 385
3 375 194 213
3 213 194 113
3 375 101 194
3 354 352 318
3 342 343 318
3 375 213 402
3 451 261 443
3 32 250 293
3 258 32 293
3 113 194 198
3 351 409 368
3 355 331 354
3 339 340 344
3 372 375 363
3 339 344 338
3 368 321 379
3 360 362 379
3 360 365 362
3 366 365 362
3 365 366 362
3 406 349 401
3 365 406 401
3 108 258 52
3 258 108 32
3 305 349 406
3 297 302 301
3 52 251 108
3 321 360 379
3 384 325 314
3 373 406 365
3 366 373 365
3 373 349 406
3 349 373 406
3 373 124 406
3 106 105 323
3 439 434 431
3 18 243 229
3 83 57 260
3 447 83 260
3 418 425 429
3 439 441 434
3 441 442 434
3 257 106 323
3 391 425 418
3 435 437 444
3 257 323 452
3 391 418 294
3 296 440 441
3 440 296 441
3 131 59 138
3 294 413 295
3 95 30 20
3 428 432 434
3 422 424 415
3 294 420 413
3 425 296 429
3 414 422 415
3 425 121 296
3 296 440 431
3 452 323 451
3 296 83 447
3 431 441 439
3 445 444 436
3 429 296 431
3 450 56 106
3 301 121 433
3 106 257 452
3 414 415 411
3 390 413 386
3 18 229 59
3 59 229 46
3 386 414 411
3 301 433 425
3 248 256 196
3 411 416 412
3 300 391 304
3 422 436 424
3 46 229 151
3 127 121 301
3 412 419 356
3 295 413 390
3 351 390 411
3 442 56 125
3 409 351 412
3 247 243 13
3 330 172 155
3 451 118 67
3 364 44 290
3 290 44 166
3 166 210 265
3 265 210 284
3 442 436 434
3 229 99 151
3 364 449 44
3 449 283 44
3 418 420 294
3 363 449 364
3 212 284 210
3 44 210 166
3 420 428 422
3 44 212 210
3 247 229 243
3 229 247 99
3 127 266 178
3 56 450 260
3 413 420 421
3 359 168 363
3 363 168 449
3 415 424 416
3 296 447 260
3 212 220 284
3 436 437 424
3 351 411 412
3 440 441 431
3 283 212 44
3 451 67 261
3 168 173 449
3 449 173 283
3 426 342 318
3 381 426 318
3 212 348 220
3 266 127 301
3 426 338 342
3 149 283 173
3 149 212 283
3 438 338 426
3 433 121 425
3 149 183 212
3 414 421 422
3 172 170 155
3 368 317 351
3 350 381 376
3 67 259 261
3 183 112 212
3 212 112 348
3 348 112 220
3 432 431 434
3 448 339 338
3 438 448 338
3 420 431 432
3 112 221 220
3 428 420 432
3 431 432 434
3 417 381 350
3 422 428 434
3 423 426 381
3 417 423 381
3 56 260 57
3 451 105 118
3 296 260 440
3 386 413 414
3 306 350 316
3 448 341 339
3 415 416 411
3 436 444 437
3 259 341 448
3 297 425 391
3 442 125 445
3 450 106 452
3 410 350 306
3 341 259 223
3 355 417 350
3 410 355 350
3 259 64 223
3 410 356 350
3 356 410 350
3 356 355 410
3 355 419 417
3 247 13 99
3 195 112 183
3 180 112 195
3 419 355 356
3 301 425 297
3 390 386 411
3 446 259 448
3 446 261 259
3 434 436 422
3 421 420 422
3 409 410 306
3 368 409 306
3 412 356 410
3 409 412 410
3 442 445 436
3 435 423 430
