ply
format ascii 1.0
comment VCGLIB generated
element vertex 100
property float x
property float y
property float z
element face 163
property list uchar int vertex_indices
end_header
0.007908012	0.053474769	0.007943976
0.027649064	0.101550285	-0.016111592
0.031397268	0.248801447	0.015300068
0.036425141	0.33710456	-0.005768242
0.039375584	0.406649985	0.022465615
0.071080162	0.545459479	-0.015798863
0.004935821	0.615331909	0.008140287
0.043994515	0.759796271	-0.006120369
0.053884816	0.818254033	0.017936349
0.08245661	0.977913778	-0.005031258
0.197968507	0.036194214	0.00404633
0.105145188	0.117194034	-0.010082976
0.101602941	0.280768283	0.010047404
0.127043604	0.367320502	0.015964722
0.13030326	0.447768657	-0.014454011
0.149868628	0.520827736	-0.016889847
0.17456423	0.637383462	0.01173742
0.169703552	0.782642384	-0.0211949
0.185595625	0.866279067	-0.000744754
0.190922212	0.973093353	0.015183773
0.295374389	0.091644561	-0.011175743
0.213925999	0.175624135	-0.01549313
0.282637626	0.220692089	0.008616658
0.260665581	0.36146497	-0.016323596
0.258276811	0.44137024	-0.013890353
0.251008864	0.54992749	0.005858194
0.249609723	0.646342553	-0.024098463
0.261126619	0.715387834	-0.007070761
0.258726431	0.868878498	-0.022740246
0.260698573	0.916948026	0.008470358
0.391652753	0.040095467	0.017607806
0.350141966	0.121315424	-0.01649727
0.355388626	0.223337969	0.022551124
0.36286611	0.344377737	-0.018778597
0.321079067	0.472908065	0.007043969
0.327901562	0.542240729	-0.010173954
0.328101239	0.659478467	-0.021711123
0.38765521	0.723721315	-0.017942318
0.334520231	0.861393632	-0.011109137
0.375129517	0.943198723	0.017207433
0.449807898	0.071876349	0.018180612
0.456323512	0.197781811	-0.00890846
0.402589412	0.297705437	0.017752358
0.42582081	0.314346469	-0.002749575
0.470857621	0.437921482	0.022442777
0.432037877	0.595993843	-0.008571311
0.443035783	0.654687666	-0.017181015
0.418312701	0.713263628	-0.005784463
0.410175066	0.801053232	-0.02221463
0.422431688	0.968594082	-0.022746692
0.583876716	0.041254244	-0.017724981
0.590800684	0.1975993	0.011677706
0.549153793	0.254226433	-0.006695183
0.525252466	0.37794831	-0.022898841
0.563881299	0.44048008	0.004963691
0.551371291	0.521883199	-0.017524188
0.576010901	0.631504205	-0.003340733
0.535981588	0.750262097	0.019824926
0.566283971	0.84395746	0.000713822
0.552466071	0.957663205	-0.005000884
0.652929942	0.062241563	0.023069118
0.604283075	0.135165321	0.017576324
0.613903832	0.271318813	-0.009606362
0.697506241	0.331763628	-0.021808769
0.668321372	0.401256366	0.024206324
0.600912763	0.56224434	0.014497684
0.67687018	0.687076555	0.01652356
0.696845217	0.726166182	0.006463791
0.600171358	0.832934474	0.02422847
0.692576931	0.902167367	0.011972987
0.745118959	0.046813408	-0.018530895
0.736006494	0.199674529	0.007982949
0.784382591	0.223989853	-0.002884514
0.745547668	0.374088185	0.013932652
0.73752705	0.407259995	0.019532448
0.783084046	0.501868279	0.019546444
0.761408092	0.698281159	-0.000619407
0.734065558	0.797883494	-0.015605174
0.746982962	0.807859959	-0.019344551
0.724753973	0.918565808	-0.016483351
0.80048373	0.046894603	-0.007931652
0.894095785	0.14076786	0.020577732
0.84384143	0.229816177	0.013799976
0.85383582	0.385800834	0.023104972
0.829028199	0.458240178	-0.022760642
0.895062396	0.596403474	-0.01502903
0.87497968	0.697223235	0.015771823
0.807180543	0.709155452	-0.022034544
0.836685645	0.872484272	0.00667251
0.809277545	0.956804817	0.005665382
0.955252429	0.093563051	0.019581197
0.988518632	0.159157053	0.011932766
0.921932576	0.293290133	0.005025963
0.943749286	0.361905841	-0.007958294
0.961853115	0.41770207	-0.008773088
0.962071248	0.509833824	0.022148382
0.966397387	0.617724948	-0.018389743
0.946404481	0.74786813	-0.019687187
0.974489407	0.891076157	0.015904829
0.925581637	0.952189204	0.019781859
3 2 12 11 
3 11 1 2 
3 12 21 11 
3 2 3 12 
3 11 10 1 
3 21 10 11 
3 21 20 10 
3 12 22 21 
3 3 13 12 
3 20 30 10 
3 21 22 20 
3 22 31 20 
3 12 23 22 
3 13 23 12 
3 13 24 23 
3 3 4 13 
3 20 31 30 
3 31 40 30 
3 22 32 31 
3 23 33 22 
3 24 34 23 
3 13 14 24 
3 4 14 13 
3 4 5 14 
3 31 41 40 
3 32 41 31 
3 32 42 41 
3 22 33 32 
3 33 42 32 
3 33 43 42 
3 23 34 33 
3 34 44 33 
3 24 25 34 
3 14 15 24 
3 5 15 14 
3 5 16 15 
3 4 6 5 
3 41 61 40 
3 42 43 41 
3 43 52 41 
3 33 44 43 
3 44 53 43 
3 34 35 44 
3 25 35 34 
3 25 26 35 
3 24 15 25 
3 15 16 25 
3 16 26 25 
3 16 27 26 
3 5 6 16 
3 6 7 16 
3 61 50 40 
3 41 51 61 
3 52 51 41 
3 52 62 51 
3 43 53 52 
3 53 62 52 
3 53 64 62 
3 44 54 53 
3 35 45 44 
3 26 36 35 
3 27 36 26 
3 27 37 36 
3 16 17 27 
3 7 17 16 
3 7 8 17 
3 61 60 50 
3 51 71 61 
3 62 71 51 
3 62 63 71 
3 64 63 62 
3 64 73 63 
3 53 54 64 
3 54 65 64 
3 44 55 54 
3 45 55 44 
3 45 56 55 
3 35 36 45 
3 36 46 45 
3 37 47 36 
3 27 38 37 
3 17 28 27 
3 8 18 17 
3 61 71 60 
3 71 70 60 
3 63 72 71 
3 73 72 63 
3 73 82 72 
3 64 74 73 
3 65 75 64 
3 54 55 65 
3 55 56 65 
3 56 66 65 
3 45 46 56 
3 46 57 56 
3 36 47 46 
3 47 57 46 
3 47 48 57 
3 37 48 47 
3 37 38 48 
3 38 39 48 
3 27 28 38 
3 28 29 38 
3 17 18 28 
3 18 29 28 
3 18 19 29 
3 8 9 18 
3 71 80 70 
3 72 80 71 
3 72 81 80 
3 82 81 72 
3 82 92 81 
3 73 83 82 
3 74 83 73 
3 74 84 83 
3 64 75 74 
3 75 84 74 
3 75 85 84 
3 65 66 75 
3 66 76 75 
3 56 57 66 
3 57 67 66 
3 48 58 57 
3 39 49 48 
3 38 29 39 
3 29 19 39 
3 18 9 19 
3 81 90 80 
3 92 91 81 
3 82 83 92 
3 83 93 92 
3 84 94 83 
3 85 95 84 
3 75 76 85 
3 76 87 85 
3 66 67 76 
3 67 77 76 
3 57 68 67 
3 58 68 57 
3 58 59 68 
3 48 49 58 
3 49 59 58 
3 81 91 90 
3 83 94 93 
3 84 95 94 
3 85 96 95 
3 87 86 85 
3 76 77 87 
3 77 88 87 
3 67 68 77 
3 68 69 77 
3 59 69 68 
3 59 79 69 
3 85 86 96 
3 86 97 96 
3 87 88 86 
3 88 97 86 
3 88 98 97 
3 77 79 88 
3 79 77 69 
3 88 99 98 
3 79 89 88 
3 88 89 99 
