ply
format ascii 1.0
comment VCGLIB generated
element vertex 100
property float x
property float y
property float z
element face 163
property list uchar int vertex_indices
end_header
0.007908012	0.053474769	0.002767059
0.027649064	0.101550285	0.001951259
0.031397268	0.248801447	-0.004490316
0.036425141	0.33710456	-0.003513127
0.039375584	0.406649985	0.003170257
0.071080162	0.545459479	-0.000104555
0.004935821	0.615331909	-0.004731127
0.043994515	0.759796271	0.000590413
0.053884816	0.818254033	-0.000520835
0.08245661	0.977913778	-9.21189E-05
0.197968507	0.036194214	-0.001508517
0.105145188	0.117194034	-0.000433316
0.101602941	0.280768283	-0.004243714
0.127043604	0.367320502	-0.004283116
0.13030326	0.447768657	-0.004553168
0.149868628	0.520827736	-0.003430379
0.17456423	0.637383462	0.003182807
0.169703552	0.782642384	0.001194326
0.185595625	0.866279067	-2.63446E-05
0.190922212	0.973093353	-0.003886161
0.295374389	0.091644561	0.001838023
0.213925999	0.175624135	0.003529123
0.282637626	0.220692089	0.001883227
0.260665581	0.36146497	-0.000610386
0.258276811	0.44137024	0.001567815
0.251008864	0.54992749	0.003811734
0.249609723	0.646342553	0.002816761
0.261126619	0.715387834	-0.003148883
0.258726431	0.868878498	0.001948968
0.260698573	0.916948026	0.000740858
0.391652753	0.040095467	0.000392717
0.350141966	0.121315424	-0.000647913
0.355388626	0.223337969	0.000546036
0.36286611	0.344377737	-0.004411895
0.321079067	0.472908065	-0.004964896
0.327901562	0.542240729	0.002447847
0.328101239	0.659478467	-0.001224393
0.38765521	0.723721315	0.002375886
0.334520231	0.861393632	-0.003872746
0.375129517	0.943198723	-0.002542355
0.449807898	0.071876349	-0.002861841
0.456323512	0.197781811	-0.004193364
0.402589412	0.297705437	-0.000751308
0.42582081	0.314346469	0.000777968
0.470857621	0.437921482	-0.002201916
0.432037877	0.595993843	0.004962156
0.443035783	0.654687666	0.001747429
0.418312701	0.713263628	0.00401669
0.410175066	0.801053232	0.002916646
0.422431688	0.968594082	0.00078318
0.583876716	0.041254244	-0.000141863
0.590800684	0.1975993	0.002091516
0.549153793	0.254226433	-0.002977461
0.525252466	0.37794831	-0.004492531
0.563881299	0.44048008	6.70442E-05
0.551371291	0.521883199	0.000490469
0.576010901	0.631504205	-0.002188521
0.535981588	0.750262097	0.004471288
0.566283971	0.84395746	0.004496663
0.552466071	0.957663205	-0.003628026
0.652929942	0.062241563	0.003915394
0.604283075	0.135165321	-0.00458723
0.613903832	0.271318813	0.004046256
0.697506241	0.331763628	-0.000422085
0.668321372	0.401256366	0.001326237
0.600912763	0.56224434	0.002365281
0.67687018	0.687076555	-1.09046E-05
0.696845217	0.726166182	0.00274472
0.600171358	0.832934474	0.003747203
0.692576931	0.902167367	0.001654485
0.745118959	0.046813408	0.001967673
0.736006494	0.199674529	-0.004687442
0.784382591	0.223989853	-0.004064639
0.745547668	0.374088185	0.00028951
0.73752705	0.407259995	-0.004284906
0.783084046	0.501868279	0.004884326
0.761408092	0.698281159	0.001074959
0.734065558	0.797883494	0.00067744
0.746982962	0.807859959	0.004510308
0.724753973	0.918565808	-0.000847114
0.80048373	0.046894603	0.004196874
0.894095785	0.14076786	-0.00317628
0.84384143	0.229816177	0.004909838
0.85383582	0.385800834	-0.004579535
0.829028199	0.458240178	-0.004116125
0.895062396	0.596403474	-0.000766485
0.87497968	0.697223235	-0.003037539
0.807180543	0.709155452	0.003371317
0.836685645	0.872484272	-0.00138292
0.809277545	0.956804817	-0.000986373
0.955252429	0.093563051	-0.004453844
0.988518632	0.159157053	-0.000119572
0.921932576	0.293290133	0.000501611
0.943749286	0.361905841	0.001696831
0.961853115	0.41770207	0.000200195
0.962071248	0.509833824	0.001170546
0.966397387	0.617724948	0.002515563
0.946404481	0.74786813	0.003294024
0.974489407	0.891076157	0.001738701
0.925581637	0.952189204	0.001323017
3 2 12 11 
3 11 1 2 
3 12 21 11 
3 2 3 12 
3 11 10 1 
3 21 10 11 
3 21 20 10 
3 12 22 21 
3 3 13 12 
3 20 30 10 
3 21 22 20 
3 22 31 20 
3 12 23 22 
3 13 23 12 
3 13 24 23 
3 3 4 13 
3 20 31 30 
3 31 40 30 
3 22 32 31 
3 23 33 22 
3 24 34 23 
3 13 14 24 
3 4 14 13 
3 4 5 14 
3 31 41 40 
3 32 41 31 
3 32 42 41 
3 22 33 32 
3 33 42 32 
3 33 43 42 
3 23 34 33 
3 34 44 33 
3 24 25 34 
3 14 15 24 
3 5 15 14 
3 5 16 15 
3 4 6 5 
3 41 61 40 
3 42 43 41 
3 43 52 41 
3 33 44 43 
3 44 53 43 
3 34 35 44 
3 25 35 34 
3 25 26 35 
3 24 15 25 
3 15 16 25 
3 16 26 25 
3 16 27 26 
3 5 6 16 
3 6 7 16 
3 61 50 40 
3 41 51 61 
3 52 51 41 
3 52 62 51 
3 43 53 52 
3 53 62 52 
3 53 64 62 
3 44 54 53 
3 35 45 44 
3 26 36 35 
3 27 36 26 
3 27 37 36 
3 16 17 27 
3 7 17 16 
3 7 8 17 
3 61 60 50 
3 51 71 61 
3 62 71 51 
3 62 63 71 
3 64 63 62 
3 64 73 63 
3 53 54 64 
3 54 65 64 
3 44 55 54 
3 45 55 44 
3 45 56 55 
3 35 36 45 
3 36 46 45 
3 37 47 36 
3 27 38 37 
3 17 28 27 
3 8 18 17 
3 61 71 60 
3 71 70 60 
3 63 72 71 
3 73 72 63 
3 73 82 72 
3 64 74 73 
3 65 75 64 
3 54 55 65 
3 55 56 65 
3 56 66 65 
3 45 46 56 
3 46 57 56 
3 36 47 46 
3 47 57 46 
3 47 48 57 
3 37 48 47 
3 37 38 48 
3 38 39 48 
3 27 28 38 
3 28 29 38 
3 17 18 28 
3 18 29 28 
3 18 19 29 
3 8 9 18 
3 71 80 70 
3 72 80 71 
3 72 81 80 
3 82 81 72 
3 82 92 81 
3 73 83 82 
3 74 83 73 
3 74 84 83 
3 64 75 74 
3 75 84 74 
3 75 85 84 
3 65 66 75 
3 66 76 75 
3 56 57 66 
3 57 67 66 
3 48 58 57 
3 39 49 48 
3 38 29 39 
3 29 19 39 
3 18 9 19 
3 81 90 80 
3 92 91 81 
3 82 83 92 
3 83 93 92 
3 84 94 83 
3 85 95 84 
3 75 76 85 
3 76 87 85 
3 66 67 76 
3 67 77 76 
3 57 68 67 
3 58 68 57 
3 58 59 68 
3 48 49 58 
3 49 59 58 
3 81 91 90 
3 83 94 93 
3 84 95 94 
3 85 96 95 
3 87 86 85 
3 76 77 87 
3 77 88 87 
3 67 68 77 
3 68 69 77 
3 59 69 68 
3 59 79 69 
3 85 86 96 
3 86 97 96 
3 87 88 86 
3 88 97 86 
3 88 98 97 
3 77 79 88 
3 79 77 69 
3 88 99 98 
3 79 89 88 
3 88 89 99 
