ply
format ascii 1.0
comment VCGLIB generated
element vertex 100
property float x
property float y
property float z
element face 163
property list uchar int vertex_indices
end_header
0.007908012 0.05347477 0 
0.02764906 0.1015503 0 
0.03139727 0.2488014 0 
0.03642514 0.3371046 0 
0.03937558 0.40665 0 
0.07108016 0.5454594 0 
0.004935821 0.6153319 0 
0.04399452 0.7597963 0 
0.05388482 0.8182541 0 
0.08245661 0.9779138 0 
0.1979685 0.03619421 0 
0.1051452 0.117194 0 
0.1016029 0.2807683 0 
0.1270436 0.3673205 0 
0.1303033 0.4477687 0 
0.1498686 0.5208277 0 
0.1745642 0.6373835 0 
0.1697036 0.7826424 0 
0.1855956 0.8662791 0 
0.1909222 0.9730933 0 
0.2953744 0.09164456 0 
0.213926 0.1756241 0 
0.2826376 0.2206921 0 
0.2606656 0.361465 0 
0.2582768 0.4413702 0 
0.2510089 0.5499275 0 
0.2496097 0.6463426 0 
0.2611266 0.7153878 0 
0.2587264 0.8688785 0 
0.2606986 0.916948 0 
0.3916528 0.04009547 0 
0.350142 0.1213154 0 
0.3553886 0.223338 0 
0.3628661 0.3443777 0 
0.3210791 0.4729081 0 
0.3279016 0.5422407 0 
0.3281012 0.6594785 0 
0.3876552 0.7237213 0 
0.3345202 0.8613936 0 
0.3751295 0.9431987 0 
0.4498079 0.07187635 0 
0.4563235 0.1977818 0 
0.4025894 0.2977054 0 
0.4258208 0.3143465 0 
0.4708576 0.4379215 0 
0.4320379 0.5959938 0 
0.4430358 0.6546876 0 
0.4183127 0.7132636 0 
0.4101751 0.8010532 0 
0.4224317 0.9685941 0 
0.5838767 0.04125424 0 
0.5908007 0.1975993 0 
0.5491538 0.2542264 0 
0.5252525 0.3779483 0 
0.5638813 0.4404801 0 
0.5513713 0.5218832 0 
0.5760109 0.6315042 0 
0.5359816 0.7502621 0 
0.5662839 0.8439575 0 
0.5524661 0.9576632 0 
0.65293 0.06224156 0 
0.6042831 0.1351653 0 
0.6139038 0.2713188 0 
0.6975062 0.3317636 0 
0.6683214 0.4012564 0 
0.6009127 0.5622444 0 
0.6768702 0.6870766 0 
0.6968452 0.7261662 0 
0.6001714 0.8329345 0 
0.6925769 0.9021674 0 
0.745119 0.04681341 0 
0.7360065 0.1996745 0 
0.7843826 0.2239899 0 
0.7455477 0.3740882 0 
0.7375271 0.40726 0 
0.783084 0.5018683 0 
0.7614081 0.6982812 0 
0.7340655 0.7978835 0 
0.746983 0.80786 0 
0.724754 0.9185658 0 
0.8004837 0.0468946 0 
0.8940958 0.1407679 0 
0.8438414 0.2298162 0 
0.8538358 0.3858008 0 
0.8290282 0.4582402 0 
0.8950624 0.5964035 0 
0.8749797 0.6972232 0 
0.8071805 0.7091554 0 
0.8366857 0.8724843 0 
0.8092775 0.9568048 0 
0.9552524 0.09356305 0 
0.9885187 0.1591571 0 
0.9219326 0.2932901 0 
0.9437493 0.3619058 0 
0.9618531 0.4177021 0 
0.9620712 0.5098338 0 
0.9663974 0.617725 0 
0.9464045 0.7478681 0 
0.9744894 0.8910761 0 
0.9255816 0.9521892 0 
3 2 12 11 
3 11 1 2 
3 12 21 11 
3 2 3 12 
3 11 10 1 
3 21 10 11 
3 21 20 10 
3 12 22 21 
3 3 13 12 
3 20 30 10 
3 21 22 20 
3 22 31 20 
3 12 23 22 
3 13 23 12 
3 13 24 23 
3 3 4 13 
3 20 31 30 
3 31 40 30 
3 22 32 31 
3 23 33 22 
3 24 34 23 
3 13 14 24 
3 4 14 13 
3 4 5 14 
3 31 41 40 
3 32 41 31 
3 32 42 41 
3 22 33 32 
3 33 42 32 
3 33 43 42 
3 23 34 33 
3 34 44 33 
3 24 25 34 
3 14 15 24 
3 5 15 14 
3 5 16 15 
3 4 6 5 
3 41 61 40 
3 42 43 41 
3 43 52 41 
3 33 44 43 
3 44 53 43 
3 34 35 44 
3 25 35 34 
3 25 26 35 
3 24 15 25 
3 15 16 25 
3 16 26 25 
3 16 27 26 
3 5 6 16 
3 6 7 16 
3 61 50 40 
3 41 51 61 
3 52 51 41 
3 52 62 51 
3 43 53 52 
3 53 62 52 
3 53 64 62 
3 44 54 53 
3 35 45 44 
3 26 36 35 
3 27 36 26 
3 27 37 36 
3 16 17 27 
3 7 17 16 
3 7 8 17 
3 61 60 50 
3 51 71 61 
3 62 71 51 
3 62 63 71 
3 64 63 62 
3 64 73 63 
3 53 54 64 
3 54 65 64 
3 44 55 54 
3 45 55 44 
3 45 56 55 
3 35 36 45 
3 36 46 45 
3 37 47 36 
3 27 38 37 
3 17 28 27 
3 8 18 17 
3 61 71 60 
3 71 70 60 
3 63 72 71 
3 73 72 63 
3 73 82 72 
3 64 74 73 
3 65 75 64 
3 54 55 65 
3 55 56 65 
3 56 66 65 
3 45 46 56 
3 46 57 56 
3 36 47 46 
3 47 57 46 
3 47 48 57 
3 37 48 47 
3 37 38 48 
3 38 39 48 
3 27 28 38 
3 28 29 38 
3 17 18 28 
3 18 29 28 
3 18 19 29 
3 8 9 18 
3 71 80 70 
3 72 80 71 
3 72 81 80 
3 82 81 72 
3 82 92 81 
3 73 83 82 
3 74 83 73 
3 74 84 83 
3 64 75 74 
3 75 84 74 
3 75 85 84 
3 65 66 75 
3 66 76 75 
3 56 57 66 
3 57 67 66 
3 48 58 57 
3 39 49 48 
3 38 29 39 
3 29 19 39 
3 18 9 19 
3 81 90 80 
3 92 91 81 
3 82 83 92 
3 83 93 92 
3 84 94 83 
3 85 95 84 
3 75 76 85 
3 76 87 85 
3 66 67 76 
3 67 77 76 
3 57 68 67 
3 58 68 57 
3 58 59 68 
3 48 49 58 
3 49 59 58 
3 81 91 90 
3 83 94 93 
3 84 95 94 
3 85 96 95 
3 87 86 85 
3 76 77 87 
3 77 88 87 
3 67 68 77 
3 68 69 77 
3 59 69 68 
3 59 79 69 
3 85 86 96 
3 86 97 96 
3 87 88 86 
3 88 97 86 
3 88 98 97 
3 77 79 88 
3 79 77 69 
3 88 99 98 
3 79 89 88 
3 88 89 99 
