ply
format ascii 1.0
comment zipper output
element vertex 453
property float x
property float y
property float z
property float confidence
property float intensity
element face 948
property list uchar int vertex_indices
end_header
-31.2216 126.304 5.14924 0.850855 0.5 
-44.6774 131.204 5.70479 0.900159 0.5 
-68.3011 144.828 41.3688 0.398443 0.5 
-6.00095 130.398 17.8986 0.85268 0.5 
-17.3568 127.613 5.26885 0.675938 0.5 
33.0513 107.034 31.9543 0.652757 0.5 
40.0873 105.21 17.3419 0.708171 0.5 
-30.1802 106.322 39.9745 0.454541 0.437538 
30.4193 118.572 18.8068 0.533079 0.5 
-64.0822 159.391 -16.9096 0.404517 0.5 
44.7046 92.7877 5.07585 0.579563 0.425995 
-31.6754 170.395 -6.35023 0.365607 0.5 
-84.8523 134.078 47.0177 0.499575 0.5 
-68.8547 122.052 51.7569 0.564827 0.5 
5.95475 131.024 17.8252 0.748371 0.5 
40.4629 105.142 6.40978 0.680399 0.5 
38.7342 102.161 -4.63112 0.600054 0.5 
-91.4513 134.136 17.1026 0.824561 0.5 
-81.8721 107.166 31.016 0.690889 0.5 
-67.218 156.155 17.8863 0.807492 0.5 
-79.5687 152.875 29.9311 0.248168 0.41865 
5.96007 122.504 34.6272 0.555044 0.354559 
-51.6317 145.001 18.4804 0.691477 0.5 
-77.9781 132.55 51.3494 0.566256 0.5 
-5.90708 127.934 27.4623 0.271491 0.462815 
-47.9133 129.301 26.9646 0.539149 0.5 
-82.427 92.8134 -5.56046 0.710999 0.5 
17.44 127.694 18.5348 0.530957 0.5 
-90.6868 120.305 6.6804 0.635593 0.5 
-29.4038 179.03 -7.87959 0.269231 0.447035 
-79.7891 143.76 42.6994 0.414139 0.5 
-18.288 108.329 41.5098 0.482541 0.5 
-20.2326 181.846 -18.3274 0.341071 0.440034 
-37.7039 167.987 -13.0391 0.396317 0.473039 
5.82164 128.06 27.9016 0.350014 0.41288 
-43.5389 130.014 17.5333 0.599596 0.5 
18.8699 119.862 32.409 0.625269 0.5 
-44.0101 167.035 2.31898 0.413994 0.469929 
-89.811 132.401 7.05743 0.625486 0.5 
-57.352 144.989 31.5196 0.696873 0.5 
44.2622 93.4526 17.6417 0.665192 0.5 
41.2343 92.1731 28.5603 0.671611 0.5 
-56.3953 154.565 16.878 0.394763 0.437313 
-20.6135 159.773 -7.17522 0.136389 0.380194 
-72.9893 65.6116 18.1693 0.413051 0.5 
-67.3967 155.256 5.81389 0.855717 0.5 
-90.4864 118.611 41.2148 0.673877 0.5 
27.3142 117.965 28.6191 0.635485 0.5 
41.907 91.6386 -5.56945 0.585857 0.459742 
-70.2109 165.303 -19.4661 0.548789 0.5 
-6.1847 122.729 34.787 0.602316 0.374044 
30.0138 93.2786 42.1476 0.649753 0.5 
-17.5129 162.126 -14.5489 0.338176 0.5 
-76.3977 171.291 -41.1021 0.256591 0.4298 
-85.4227 105.386 3.39486 0.523819 0.297125 
37.0431 110.443 20.7229 0.52623 0.448558 
-6.59732 42.7285 46.9391 0.280725 0.5 
6.39794 43.7006 46.826 0.331809 0.5 
-55.9247 157.606 6.56455 0.561042 0.5 
-91.1449 118.816 29.8442 0.848517 0.5 
-59.5109 128.352 39.9626 0.658867 0.444043 
-17.6335 127.605 17.9366 0.547632 0.5 
-66.633 153.831 30.8703 0.855321 0.5 
-43.6418 169.438 -5.50226 0.274377 0.177706 
-57.2759 43.243 42.862 0.417977 0.459314 
-76.3773 157.221 -16.8889 0.267801 0.372187 
-43.4461 156.05 6.15795 0.447592 0.5 
-42.7118 42.1645 42.7004 0.509262 0.5 
-25.4201 88.6622 50.3827 0.608282 0.5 
-14.179 126.27 26.6417 0.420759 0.5 
-88.2582 89.8687 6.96625 0.753697 0.5 
-68.8695 157.773 -6.87593 0.595216 0.5 
-67.9676 142.877 -7.57643 0.446131 0.5 
18.8538 106.293 41.6902 0.669811 0.5 
-36.487 171.225 0.545037 0.438578 0.5 
-66.4352 117.198 -9.87161 0.569796 0.5 
-68.2606 170.398 -43.6995 0.381568 0.451091 
-90.925 146.05 19.0382 0.648478 0.5 
6.78622 115.841 38.8077 0.549283 0.408623 
31.0139 93.0696 -17.798 0.732658 0.5 
5.6976 105.89 43.5511 0.592572 0.5 
-70.6519 130.63 50.2497 0.563116 0.5 
5.9746 130.858 5.79479 0.795238 0.5 
18.4217 42.3182 42.477 0.259499 0.426724 
14.7876 90.9747 50.9658 0.654705 0.5 
-5.98232 115.409 40.2027 0.615633 0.5 
-81.1312 117.972 -3.59453 0.505277 0.5 
-78.7032 144.274 -3.89052 0.466714 0.5 
5.81988 106.226 -20.8968 0.792948 0.5 
-19.2761 119.853 32.8061 0.445477 0.415699 
-5.93116 130.215 5.954 0.738924 0.5 
-89.3322 142.745 29.0326 0.80362 0.5 
-7.62538 123.273 -9.81555 0.767738 0.284429 
-69.2263 178.922 -54.2743 0.245129 0.411885 
-29.8757 124.252 20.9674 0.32811 0.5 
-84.8266 148.987 32.7697 0.331963 0.314683 
-88.8516 90.9723 17.9034 0.603378 0.5 
-30.5879 122.384 -6.35771 0.63839 0.5 
-30.7198 117.989 30.6166 0.543293 0.5 
-78.0612 120.653 51.3999 0.490413 0.5 
33.2714 108.498 -7.43195 0.534403 0.5 
-67.7112 92.8918 -16.8814 0.511499 0.5 
-75.666 91.1817 -13.6967 0.429902 0.5 
-82.422 95.1121 31.0878 0.678588 0.5 
-85.6984 136.903 1.92122 0.517441 0.5 
-29.2804 41.7747 51.397 0.553401 0.5 
-17.732 42.3864 51.684 0.709553 0.5 
-65.6987 171.007 -56.644 0.549906 0.5 
-29.8523 170.905 -16.5609 0.436075 0.5 
-56.2502 135.013 33.0455 0.727547 0.5 
-66.6127 133.021 44.7044 0.724494 0.5 
-42.5379 155.441 -7.49353 0.424682 0.5 
-54.5308 71.4603 39.7042 0.682177 0.456916 
-41.3159 90.6923 -22.5881 0.72469 0.5 
-17.2876 92.1774 53.6212 0.546444 0.5 
-5.98119 94.0308 54.2643 0.455087 0.5 
42.3724 67.2563 29.5801 0.33948 0.5 
28.5741 116.909 -3.91772 0.66246 0.5 
-33.1811 45.0744 45.1146 0.432059 0.466683 
-53.9402 118.566 35.3731 0.515399 0.5 
42.2724 79.5546 -5.79461 0.568535 0.5 
29.7273 42.5502 30.4975 0.650152 0.5 
-31.5639 95.9331 -23.6801 0.474586 0.431409 
38.1804 105.121 26.6947 0.534482 0.490368 
-28.4988 90.492 -29.0854 0.294426 0.332222 
-17.3189 43.7942 43.2695 0.576068 0.5 
3.76754 47.7551 50.2037 0.495901 0.44823 
43.2673 45.8291 27.8251 0.807573 0.5 
-23.3322 181.239 -11.2893 0.246322 0.458572 
-5.6258 56.5038 53.8818 0.61481 0.5 
5.29431 55.6798 53.2881 0.560812 0.423049 
-88.3219 105.757 17.2983 0.604102 0.5 
-56.6374 47.0184 30.5809 0 0 
-29.6243 54.3188 39.8951 0.676102 0.5 
-5.97407 105.897 44.0669 0.338462 0.5 
-21.4122 54.6976 44.641 0.195646 0.404388 
-16.1488 57.4363 50.904 0.451613 0.5 
-56.8305 146.392 -2.6426 0.48145 0.5 
-93.1466 119.067 17.9948 0.570519 0.5 
-61.862 158.417 -29.3026 0.690546 0.5 
-85.5858 106.84 21.729 0.519516 0.5 
33.6642 54.0543 35.0841 0.609925 0.5 
42.771 56.0351 31.559 0.669803 0.5 
-43.4589 117.191 31.7044 0.657986 0.5 
-68.0962 156.721 -42.6174 0.523327 0.5 
27.2384 103.156 39.7058 0.689793 0.5 
-29.3932 178.536 -14.5563 0.314049 0.5 
-76.2697 91.2245 38.3419 0.647987 0.457049 
-19.1285 98.5952 45.6676 0.271215 0.427554 
-53.091 56.7402 29.3963 0.192432 0.5 
-43.1978 55.5777 39.0838 0.311543 0.5 
-83.3055 115.643 46.828 0.438131 0.5 
14.4345 127.081 26.297 0.479299 0.429147 
-38.8913 123.761 24.9778 0.514489 0.5 
-59.4359 119.905 39.9756 0.634635 0.5 
-70.2332 154.262 -31.2401 0.685413 0.5 
-57.4473 152.576 28.4508 0.93076 0.5 
-48.0038 56.366 36.2663 0.58186 0.5 
-10.7262 179.662 -27.7472 0.400699 0.458536 
-88.2293 106.066 8.46756 0.477822 0.5 
-78.994 153.984 6.51862 0.57436 0.5 
-29.5675 126.072 14.6338 0.393422 0.5 
-81.7356 154.39 17.7332 0.505065 0.5 
-79.5469 104.194 -6.20274 0.528684 0.5 
-24.8608 122.913 24.5429 0.379391 0.5 
-66.4416 159.957 -53.3713 0.38665 0.5 
-78.4878 70.5283 17.4461 0.703257 0.5 
-9.67101 173.225 -26.4945 0.379771 0.5 
-56.6284 54.7031 7.44563 0.270787 0.5 
-18.4015 122.219 -7.75134 0.782181 0.5 
-69.5952 146.412 -18.032 0.130446 0.5 
-41.2517 123.196 -9.58087 0.590842 0.5 
-68.4972 148.194 -28.726 0.690046 0.5 
-54.0036 55.543 17.7674 0.079935 0 
-16.9203 68.2168 53.1499 0.608033 0.445048 
-6.07221 67.7102 56.4501 0.650491 0.470895 
7.08728 67.3218 55.3369 0.748671 0.5 
-14.3174 116.971 37.836 0.441459 0.5 
53.8923 55.7547 26.6244 0.405493 0.41666 
5.17855 93.1738 53.5873 0.395048 0.366076 
-43.1038 67.4388 40.7737 0.587502 0.5 
-29.3069 68.0733 41.016 0.650585 0.5 
-37.9555 161.954 -12.8021 0.499753 0.5 
-56.1165 65.4329 34.1979 0.277414 0.5 
-76.1707 155.559 -5.9272 0.708579 0.5 
-55.2181 122.506 -9.46488 0.538005 0.5 
17.7004 105.983 -18.6138 0.576137 0.468722 
53.4583 65.6375 26.4336 0.501229 0.5 
-86.9152 94.4156 2.93118 0.494536 0.346642 
-76.4257 161.707 -29.7517 0.476378 0.5 
-44.0959 127.453 -3.27875 0.853498 0.5 
-31.2919 79.8298 43.4944 0.693464 0.5 
-54.9448 106.348 -18.5625 0.484023 0.5 
-72.3735 110.057 -9.43257 0.44421 0.5 
-55.3659 91.9829 -21.1783 0.619673 0.5 
-48.8091 66.0127 37.3959 0.829801 0.5 
-47.3086 145.156 6.88469 0.636632 0.45621 
-80.3913 129.634 -4.69755 0.386393 0.5 
-41.802 105.934 -19.8692 0.79815 0.5 
-6.32139 93.1652 -32.8935 0.564234 0.5 
-5.97054 106.138 -22.2282 0.740261 0.5 
-29.4827 158.293 -6.19266 0.209483 0.5 
-17.7953 106.289 -21.7771 0.723165 0.5 
-88.5261 137.839 39.3964 0.651389 0.5 
-67.4935 128.392 -8.63471 0.737784 0.5 
46.3693 71.5128 21.6754 0.461473 0.448797 
-40.9565 117.168 -14.5809 0.602235 0.5 
-10.6656 167.541 -19.9013 0.359593 0.5 
-53.2547 157.456 -2.81896 0.292939 0.5 
5.30988 93.3129 -30.1852 0.75972 0.5 
-77.3436 72.7226 26.6546 0.757943 0.5 
-62.5087 149.934 -15.0319 0.415531 0.480025 
-68.8014 68.5726 30.6649 0.49936 0.45677 
-54.5252 80.8478 -20.1707 0.75515 0.5 
-43.6768 78.916 42.8855 0.696934 0.5 
-18.5748 78.9703 55.7353 0.607912 0.5 
-5.99993 79.4548 57.8008 0.791265 0.5 
7.06485 81.1917 55.8187 0.523043 0.5 
-85.0269 146.034 5.85954 0.583528 0.5 
37.0111 110.397 2.65294 0.516602 0.481774 
-68.3084 80.3316 40.7109 0.610448 0.476331 
-55.894 79.2594 43.5335 0.634349 0.5 
38.1456 88.1056 -13.8675 0.676152 0.5 
-64.2837 39.6418 39.624 0.532543 0.5 
-69.8696 168.536 -31.3319 0.458525 0.324439 
-61.796 155.741 -20.7923 0.443336 0.5 
-62.2848 162.36 -39.6288 0.427869 0.464762 
-68.6864 92.3704 42.1978 0.59211 0.5 
-49.353 139.298 14.7955 0.761861 0.5 
-78.4177 110.126 41.7886 0.498936 0.5 
17.9416 79.2747 51.8862 0.491924 0.475524 
5.32732 123.661 -9.97105 0.555015 0.5 
-55.6774 93.5206 44.207 0.778337 0.5 
-43.1924 92.1154 43.2689 0.605881 0.5 
-29.8626 94.0124 44.4805 0.668172 0.5 
20.5955 87.113 49.2325 0.678548 0.5 
17.21 127.663 5.12593 0.595962 0.5 
-29.0125 106.719 -20.7479 0.809584 0.5 
18.5443 94.8112 47.7587 0.669841 0.5 
-5.88676 116.622 -16.0049 0.826286 0.5 
-52.8191 162.649 2.96711 0.343566 0.5 
35.8078 95.8594 -12.0328 0.738943 0.5 
-91.2064 131.415 29.5307 0.816274 0.5 
-67.874 106.952 40.3725 0.481571 0.5 
-44.1636 104.918 40.1706 0.648927 0.395789 
7.49586 98.35 48.8255 0.46146 0.5 
-55.4961 103.898 41.1405 0.529374 0.5 
-66.9044 115.717 47.3479 0.429195 0.5 
-50.1524 140.326 2.58818 0.569746 0.5 
-55.4508 132.42 -4.85445 0.673026 0.5 
-14.752 181.897 -26.2781 0.40888 0.5 
-29.558 161.783 -14.3368 0.852313 0.5 
-56.1854 111.277 37.3713 0.588374 0.5 
-40.984 110.496 37.0883 0.553647 0.5 
-32.0055 110.468 37.0438 0.565129 0.5 
25.0033 110.611 36.8459 0.631257 0.5 
-46.987 147.434 -2.22536 0.521986 0.5 
-18.3407 35.2362 50.7938 0.291685 0.457265 
-17.8406 170.484 -18.1143 0.809186 0.5 
-56.9472 34.9416 42.3717 0.341981 0.5 
5.83339 35.1076 42.0914 0.261253 0.345588 
-42.8024 35.1574 41.6872 0.193197 0.5 
-66.462 104.777 -14.8582 0.608847 0.5 
25.7452 45.9137 38.1185 0.444171 0.5 
37.9451 81.7167 -14.1547 0.644934 0.5 
-84.4262 79.7714 18.6332 0.67606 0.5 
53.2504 47.59 18.1903 0.342211 0.398387 
18.6424 53.6035 46.215 0.589102 0.5 
7.32515 118.243 -15.3012 0.54369 0.457314 
-31.4704 157.066 0.976216 0.445666 0.44081 
28.6229 56.876 40.7635 0.635463 0.446542 
58.1591 55.0016 18.0254 0.474964 0.5 
16.864 89.935 -26.9104 0.546403 0.5 
14.5778 58.5769 50.1691 0.387785 0.5 
36.7248 91.8184 36.6248 0.726421 0.5 
-19.8801 166.404 -11.2699 0.688671 0.5 
15.0294 67.7357 52.0671 0.554385 0.463079 
21.0524 68.1161 48.4346 0.414803 0.412252 
29.8776 67.9936 41.9172 0.611901 0.5 
36.8358 67.8495 36.641 0.593561 0.5 
57.4748 68.2218 17.1425 0.550839 0.448044 
31.6842 78.5087 -19.208 0.760295 0.5 
-76.0271 175.704 -50.6937 0.340571 0.5 
-65.5396 60.7885 17.5707 0.414933 0.425841 
-80.6026 81.447 30.6516 0.756683 0.5 
18.9749 121.506 -6.94565 0.549 0.5 
30.684 79.5461 43.1507 0.572664 0.5 
37.1888 79.2484 36.7937 0.505468 0.5 
41.9366 79.5911 29.5911 0.645662 0.5 
46.032 79.3694 17.7694 0.458504 0.467907 
-78.7921 70.7773 6.85585 0.704234 0.277826 
-29.3987 115.917 -14.7065 0.856895 0.5 
-86.9924 113.518 4.10409 0.344807 0.5 
-14.2186 174.013 -25.9807 0.439072 0.5 
17.4795 35.2131 -5.92856 0 0 
16.2141 35.8475 -16.2131 0.173751 0.5 
19.3248 35.8322 31.3206 0.156956 0.287305 
43.5544 41.1101 5.79916 0.245023 0.5 
22.6191 40.6052 -7.93544 0.173629 0.5 
19.1348 42.782 -19.2095 0.367832 0.5 
41.4633 45.6301 -3.54513 0.514406 0.5 
43.6925 41.1968 17.72 0.265572 0.5 
51.2872 46.3959 5.80531 0.199267 0.5 
28.5777 105.181 -14.2381 0.728425 0.5 
30.6748 44.5124 -6.17993 0.464947 0.5 
-18.4118 94.8059 -30.7434 0.520871 0.5 
-31.5484 34.3023 -28.4081 0.16856 0.5 
26.0381 47.5902 -16.5794 0.515417 0.5 
55.4197 68.6378 5.89653 0.629664 0.372945 
52.0374 55.073 -2.4816 0.592036 0.5 
56.7375 54.2224 5.12483 0.511629 0.5 
42.8049 55.3286 -6.04704 0.434179 0.5 
-62.0037 167.422 -52.7165 0.538383 0.466596 
34.1128 54.1776 -9.48346 0.591066 0.5 
29.518 56.0564 -17.5875 0.574224 0.5 
-17.7887 115.911 -15.7838 0.559736 0.5 
-41.7838 35.7602 -26.4107 0.0979878 0.5 
-5.18939 43.046 -27.3333 0.274297 0.5 
-66.4059 34.3649 -4.16668 0.135623 0.5 
47.5414 71.2174 5.42617 0.590477 0.5 
24.9138 82.5163 -24.5877 0.759593 0.5 
-29.9024 42.6031 -28.3179 0.537642 0.5 
21.8121 51.5865 -23.6492 0.56032 0.5 
-27.1537 35.1608 50.9267 0.96808 0.5 
16.1181 115.63 -14.5451 0.45799 0.403894 
31.738 67.9983 -18.3532 0.581486 0.5 
41.8226 67.5201 -5.51555 0.572144 0.5 
51.4871 63.7279 -1.74794 0.518067 0.5 
-89.3303 128.309 42.8023 0.633972 0.457764 
45.9385 79.6307 5.79632 0.323813 0.5 
-70.5433 149.897 -38.7319 0.143598 0.5 
-42.9617 43.0242 -17.6288 0.371561 0.5 
-71.9677 177.848 -47.4604 0.498199 0.393806 
-76.0529 177.651 -47.1457 0.200482 0.341482 
30.4173 118.495 5.73814 0.517745 0.5 
-77.1451 167.706 -29.8798 0.259817 0.452429 
20.2668 92.861 -23.7363 0.630702 0.48336 
-25.4815 79.8697 51.0546 0.764034 0.5 
-65.0541 35.3259 16.2237 0.352362 0.5 
-64.7676 35.0792 29.4481 0.161121 0.384305 
-64.4267 41.4591 30.4476 0.206373 0.5 
-64.32 35.2261 38.7914 0.349097 0.5 
-67.6 34.0299 5.90491 0.228898 0.5 
-67.9534 41.8588 6.68394 0.30841 0.5 
-57.3497 43.1548 20.0229 0 0 
-63.4632 41.4321 14.2052 0.258252 0.450399 
-59.413 47.1382 6.28538 0.460736 0.319245 
-23.3834 65.6416 45.0976 0.709715 0.5 
-63.538 71.665 37.9463 0.556494 0.5 
-19.3036 81.0128 -38.4318 0.500126 0.449734 
-42.7206 34.3557 -19.1302 0.176398 0.205782 
-6.90237 34.64 -20.2171 0.15305 0.5 
-65.6787 40.8332 -4.01793 0.169982 0.409113 
-38.3907 41.9218 -26.4039 0.3765 0.5 
-55.6585 43.2866 -7.58834 0.62257 0.5 
-41.6785 42.0276 -9.99679 0.340556 0.5 
-32.2294 44.6593 -16.7499 0.299501 0.5 
-30.7385 56.3307 -18.517 0.265727 0.5 
-42.9026 56.1897 -11.3043 0.555432 0.5 
-55.0285 56.6557 -5.31375 0.527245 0.5 
-26.1858 56.8836 -28.2694 0.366688 0.5 
-55.2189 117.461 -13.3744 0.568329 0.5 
-19.0658 54.6695 -31.8646 0.484351 0.5 
-68.7629 68.6694 -6.54941 0.168435 0.5 
-73.0504 65.42 5.52859 0.275779 0.5 
-20.7234 67.2793 -36.553 0.45692 0.5 
-29.0792 67.426 -29.0521 0.452259 0.5 
-32.8056 66.4637 -19.5215 0.908229 0.5 
-17.7608 34.3319 -25.9142 0.174612 0.215481 
-77.3687 73.2571 -4.09771 0.293636 0.296358 
15.1616 126.104 -2.66395 0.542796 0.5 
-84.5255 80.0572 5.30702 0.615888 0.5 
-79.3517 79.8559 -6.40565 0.260107 0.5 
-30.9728 79.4701 -31.2475 0.64535 0.304239 
-35.5144 81.801 -22.6887 0.930953 0.5 
-68.141 80.1227 -16.4278 0.485274 0.5 
-51.2932 34.227 -12.9013 0.159841 0.5 
16.1924 80.479 -29.2174 0.750174 0.5 
-14.4478 87.9274 -38.0297 0.689122 0.5 
-17.3157 43.2674 -28.2906 0.230538 0.5 
-19.3328 97.9251 -24.792 0.661276 0.5 
-55.5479 33.6816 -6.19013 0.1361 0.5 
7.02627 97.8418 -24.6055 0.732067 0.326346 
-14.8892 126.068 -2.52126 0.467449 0.5 
17.5205 55.2114 -27.2756 0.685576 0.5 
-9.53661 79.4104 -37.9859 0.670336 0.467319 
5.24266 39.1336 -21.947 0.540697 0.5 
17.5653 67.9339 -28.9388 0.690366 0.5 
-5.7907 128.077 -2.85105 0.714685 0.5 
6.26556 128.047 -3.1705 0.574275 0.5 
5.59979 34.6604 -17.9318 0.278473 0.5 
29.824 35.9142 4.88977 0.290019 0.5 
6.25193 45.9623 -26.3782 0.665265 0.460024 
14.3253 47.3484 -25.1513 0.546545 0.456757 
6.04086 55.5073 -30.4314 0.840924 0.5 
-6.13413 54.6372 -32.635 0.634884 0.475184 
-34.6694 57.124 -11.4953 0.102172 0.5 
-6.84543 67.9742 -35.9406 0.670518 0.457134 
5.6558 67.6237 -32.9199 0.79033 0.385997 
-56.9732 65.1628 -9.58219 0.452904 0.5 
-42.2796 69.9944 -16.1463 0.543504 0.5 
-17.5719 70.5473 -38.2261 0.581028 0.470136 
-55.586 72.2983 -16.1218 0.401473 0.5 
-63.7884 71.2697 -13.8535 0.437166 0.5 
5.68561 79.0547 -33.9189 0.719764 0.5 
-3.38429 80.4511 -36.7226 0.799862 0.5 
-24.8988 81.5004 -37.1078 0.39297 0.457854 
-41.2513 79.1378 -19.7746 0.273711 0.5 
-73.5819 77.7026 -12.2023 0.445372 0.5 
-18.062 35.2627 -19.5401 0.319674 0.5 
-31.577 35.8487 -17.9669 0.482378 0.5 
-6.02034 38.1237 -14.5184 0.909294 0.5 
-17.7811 38.2546 -15.4503 0.887215 0.5 
7.53447 35.5596 -6.50063 0.962688 0.5 
4.30437 38.4017 -7.1754 0.927286 0.5 
-5.93935 38.948 -5.92129 0.816802 0.5 
-17.6142 38.6055 -5.84508 0.759701 0.5 
-43.0308 34.1391 -5.65972 0.772585 0.5 
18.9222 35.1076 4.99769 0.579133 0.5 
-29.9129 38.3912 -5.82677 0.752109 0.5 
5.12066 34.8398 5.58498 0.588251 0.5 
1.03528 37.5917 0.952222 0.441385 0.5 
-5.84714 38.3419 5.90803 0.728422 0.5 
-42.4621 34.3144 5.90597 0.266658 0.5 
-17.873 38.3166 5.99471 0.753895 0.5 
28.662 35.8411 18.7496 0.360666 0.5 
-55.026 33.6204 5.83816 0.742717 0.5 
-28.4733 38.1489 4.41853 0.456211 0.5 
-0.947006 35.7374 10.3469 0.779853 0.5 
19.3224 35.1814 19.6616 0.180494 0.5 
-34.2325 33.759 7.17517 0.152905 0 
5.36022 34.5956 17.9871 0.676527 0.5 
-0.385714 35.1459 13.4171 0.848157 0.5 
33.4119 37.6179 21.0082 0.70177 0.5 
-5.89791 38.1782 17.7062 0.797449 0.5 
-35.2445 35.0571 17.8257 0.572312 0.5 
-17.8078 38.1962 17.8114 0.753708 0.5 
-26.1898 37.7592 17.7044 0.146481 0.5 
-56.3247 33.6762 17.5265 0.458851 0.5 
1.14114 37.661 22.3414 0.978558 0.5 
10.0253 35.5029 29.656 0.701449 0.5 
5.50127 38.5556 29.6609 0.996029 0.5 
-5.96581 38.8946 29.9252 0.805634 0.5 
-33.0745 35.5217 29.2236 0.263742 0.5 
-27.7717 38.2563 32.2865 0.074682 0.5 
-17.9091 38.5902 29.6167 0.782021 0.5 
-41.9404 34.3698 29.9668 0.109729 0 
15.243 35.6116 41.2692 0.759188 0.5 
-55.4301 34.2555 29.7952 0.808252 0.5 
-66.0515 61.1144 5.85548 0.442355 0.5 
-6.54912 35.0372 45.3959 0.139343 0 
-30.7826 34.7596 43.2959 0.154826 0.5 
-18.0834 34.8142 45.8772 0.143796 0.5 
3 164 94 98 
3 224 335 49 
3 331 350 376 
3 124 122 237 
3 61 89 69 
3 61 161 94 
3 24 89 50 
3 109 25 35 
3 27 34 152 
3 444 443 435 
3 94 35 153 
3 3 61 69 
3 24 69 89 
3 38 218 104 
3 22 42 39 
3 14 24 34 
3 290 166 371 
3 226 76 224 
3 204 197 72 
3 82 3 14 
3 13 81 23 
3 99 13 23 
3 23 110 30 
3 110 2 30 
3 166 265 371 
3 90 61 3 
3 34 24 50 
3 293 167 207 
3 80 78 85 
3 61 94 164 
3 84 238 80 
3 4 161 61 
3 132 149 64 
3 196 22 228 
3 59 46 242 
3 179 84 80 
3 265 96 371 
3 52 258 207 
3 121 127 141 
3 343 168 346 
3 232 227 220 
3 232 243 227 
3 232 246 243 
3 57 126 56 
3 57 130 126 
3 221 232 220 
3 4 61 90 
3 134 80 85 
3 176 217 175 
3 4 0 161 
3 78 21 50 
3 126 130 129 
3 56 126 129 
3 111 182 201 
3 96 70 371 
3 89 164 98 
3 123 6 55 
3 197 87 72 
3 416 419 412 
3 245 80 179 
3 21 78 36 
3 61 164 89 
3 67 132 64 
3 150 149 132 
3 384 387 325 
3 214 221 112 
3 214 233 232 
3 221 214 232 
3 244 246 232 
3 233 244 232 
3 244 252 246 
3 244 143 119 
3 252 244 119 
3 127 142 141 
3 67 150 132 
3 82 90 3 
3 112 180 214 
3 244 253 143 
3 111 201 269 
3 37 74 63 
3 133 150 67 
3 118 133 67 
3 133 180 150 
3 191 214 180 
3 181 191 180 
3 191 234 233 
3 214 191 233 
3 234 244 233 
3 234 7 244 
3 244 98 253 
3 253 98 143 
3 216 217 115 
3 181 180 133 
3 15 16 219 
3 254 98 244 
3 7 254 244 
3 74 11 63 
3 14 3 24 
3 3 69 24 
3 217 216 175 
3 85 78 50 
3 73 78 80 
3 7 98 254 
3 105 133 118 
3 1 248 196 
3 48 241 100 
3 42 156 39 
3 149 173 344 
3 135 133 105 
3 106 135 105 
3 31 7 234 
3 148 31 234 
3 89 98 7 
3 31 89 7 
3 235 84 230 
3 14 27 236 
3 106 125 135 
3 19 20 62 
3 131 54 159 
3 34 50 21 
3 82 14 236 
3 201 52 43 
3 310 308 280 
3 131 159 54 
3 271 310 280 
3 27 14 34 
3 177 89 31 
3 238 73 80 
3 130 176 175 
3 354 331 381 
3 129 130 175 
3 125 136 135 
3 251 52 201 
3 106 56 125 
3 56 129 136 
3 125 56 136 
3 129 175 174 
3 136 129 174 
3 175 216 215 
3 174 175 215 
3 115 114 215 
3 216 115 215 
3 134 85 31 
3 85 177 31 
3 50 89 177 
3 85 50 177 
3 179 80 245 
3 400 407 367 
3 263 83 121 
3 217 179 115 
3 149 132 64 
3 178 187 116 
3 142 178 116 
3 326 120 319 
3 57 83 267 
3 304 391 294 
3 355 354 359 
3 128 29 11 
3 267 273 130 
3 48 16 10 
3 301 302 266 
3 196 66 22 
3 230 84 217 
3 247 13 243 
3 110 81 13 
3 271 178 266 
3 110 13 247 
3 278 277 267 
3 48 10 329 
3 258 11 275 
3 1 196 228 
3 154 247 243 
3 154 110 247 
3 263 141 270 
3 154 60 110 
3 60 154 110 
3 154 60 110 
3 11 74 37 
3 274 5 51 
3 252 154 243 
3 119 252 243 
3 109 110 60 
3 39 2 110 
3 109 39 110 
3 32 128 29 
3 32 128 11 
3 309 300 311 
3 252 119 154 
3 73 145 255 
3 67 64 259 
3 32 29 128 
3 258 275 43 
3 154 119 60 
3 119 109 60 
3 137 256 248 
3 270 267 83 
3 235 238 84 
3 267 130 57 
3 258 32 11 
3 302 310 271 
3 51 238 235 
3 266 302 271 
3 5 36 255 
3 51 235 230 
3 51 145 73 
3 286 51 230 
3 287 274 286 
3 119 25 109 
3 10 40 289 
3 120 48 329 
3 274 51 286 
3 276 230 217 
3 10 16 15 
3 51 5 145 
3 43 11 201 
3 176 276 217 
3 143 25 119 
3 158 207 167 
3 360 321 357 
3 130 273 276 
3 122 198 237 
3 270 278 267 
3 77 218 38 
3 15 6 40 
3 280 187 178 
3 271 280 178 
3 258 207 32 
3 66 58 22 
3 279 287 278 
3 155 139 172 
3 121 141 263 
3 288 41 274 
3 287 288 274 
3 276 176 130 
3 289 288 205 
3 274 41 5 
3 288 287 279 
3 329 10 289 
3 16 100 219 
3 127 178 142 
3 273 267 276 
3 252 119 243 
3 116 279 141 
3 41 123 5 
3 116 288 279 
3 142 116 141 
3 207 158 32 
3 276 277 230 
3 101 102 163 
3 299 298 294 
3 287 286 278 
3 5 255 145 
3 131 159 70 
3 275 11 43 
3 32 158 250 
3 205 288 116 
3 73 36 78 
3 120 329 319 
3 297 391 300 
3 84 179 217 
3 17 77 38 
3 255 36 73 
3 263 270 83 
3 249 248 1 
3 286 230 277 
3 11 37 66 
3 43 52 258 
3 267 277 276 
3 279 278 270 
3 141 279 270 
3 51 73 238 
3 47 36 5 
3 201 66 269 
3 201 11 66 
3 309 310 302 
3 300 309 302 
3 182 33 251 
3 278 286 277 
3 243 246 252 
3 416 427 419 
3 96 131 70 
3 66 256 111 
3 65 335 189 
3 113 374 407 
3 144 139 155 
3 226 224 139 
3 358 400 396 
3 30 91 203 
3 226 139 144 
3 46 328 242 
3 307 304 298 
3 70 159 54 
3 103 265 284 
3 443 261 446 
3 17 38 28 
3 88 200 239 
3 72 170 211 
3 138 17 28 
3 35 1 228 
3 295 299 294 
3 18 131 140 
3 18 59 131 
3 207 258 52 
3 188 70 54 
3 104 87 197 
3 222 48 120 
3 325 326 311 
3 326 281 120 
3 54 159 292 
3 386 299 295 
3 138 59 17 
3 48 100 16 
3 59 242 17 
3 296 121 83 
3 10 15 40 
3 242 91 17 
3 225 9 211 
3 314 322 384 
3 326 325 281 
3 170 225 211 
3 17 91 77 
3 144 76 226 
3 155 9 225 
3 159 131 28 
3 172 139 170 
3 131 138 28 
3 281 264 120 
3 264 222 120 
3 139 155 225 
3 139 225 170 
3 314 325 313 
3 386 295 390 
3 292 159 28 
3 132 149 344 
3 424 427 416 
3 49 335 65 
3 314 313 304 
3 111 269 66 
3 9 71 72 
3 211 9 72 
3 306 316 353 
3 307 314 304 
3 325 311 313 
3 40 41 288 
3 289 40 288 
3 40 6 41 
3 6 123 41 
3 22 39 109 
3 165 312 76 
3 299 307 298 
3 144 165 76 
3 312 107 76 
3 376 381 331 
3 165 107 312 
3 155 172 330 
3 35 228 22 
3 45 184 160 
3 42 62 156 
3 2 39 62 
3 58 42 22 
3 49 71 9 
3 280 116 187 
3 280 205 116 
3 155 330 144 
3 280 289 205 
3 319 280 308 
3 162 77 20 
3 20 77 91 
3 329 289 280 
3 319 329 280 
3 156 62 39 
3 372 408 375 
3 190 1 0 
3 1 35 0 
3 42 19 62 
3 35 161 0 
3 190 0 97 
3 35 22 109 
3 76 53 224 
3 161 35 94 
3 49 9 155 
3 224 49 155 
3 29 63 11 
3 160 162 19 
3 76 333 53 
3 153 25 143 
3 71 49 65 
3 2 20 30 
3 62 20 2 
3 55 8 5 
3 169 0 4 
3 6 8 55 
3 35 25 153 
3 160 218 162 
3 218 77 162 
3 15 334 6 
3 334 8 6 
3 332 76 93 
3 8 47 5 
3 98 153 143 
3 94 153 98 
3 219 334 15 
3 332 333 76 
3 93 76 107 
3 100 334 219 
3 160 19 45 
3 19 162 20 
3 340 132 344 
3 45 19 42 
3 27 47 8 
3 27 36 47 
3 80 115 179 
3 45 42 58 
3 71 184 45 
3 236 27 8 
3 334 236 8 
3 332 93 333 
3 27 152 36 
3 223 64 340 
3 236 334 117 
3 152 21 36 
3 134 148 115 
3 115 148 114 
3 152 34 21 
3 5 123 55 
3 337 68 191 
3 333 93 282 
3 256 66 196 
3 135 174 347 
3 183 180 195 
3 117 285 236 
3 182 111 63 
3 354 318 352 
3 114 234 68 
3 71 65 184 
3 135 136 174 
3 191 215 337 
3 337 215 114 
3 63 33 182 
3 133 135 181 
3 135 347 181 
3 110 23 81 
3 157 180 183 
3 149 157 183 
3 227 147 220 
3 12 23 30 
3 151 99 46 
3 174 215 191 
3 99 328 46 
3 114 148 234 
3 149 150 157 
3 220 147 284 
3 79 186 336 
3 68 234 191 
3 396 357 356 
3 99 23 12 
3 328 99 12 
3 337 114 68 
3 356 358 396 
3 338 343 342 
3 223 340 339 
3 265 103 96 
3 341 223 339 
3 347 174 191 
3 182 251 201 
3 134 115 80 
3 12 30 203 
3 345 343 338 
3 147 227 103 
3 33 108 251 
3 95 20 91 
3 181 347 191 
3 345 346 343 
3 157 150 180 
3 103 227 18 
3 66 240 58 
3 345 344 346 
3 146 32 108 
3 445 125 444 
3 30 95 91 
3 124 373 374 
3 137 249 72 
3 344 345 338 
3 344 168 346 
3 12 203 328 
3 284 147 103 
3 240 66 37 
3 344 173 168 
3 314 384 322 
3 107 282 93 
3 76 53 107 
3 107 53 282 
3 282 53 333 
3 165 76 107 
3 315 202 291 
3 165 144 76 
3 407 374 367 
3 144 53 76 
3 388 389 92 
3 155 144 330 
3 144 224 53 
3 432 431 434 
3 155 189 144 
3 144 189 224 
3 189 335 53 
3 224 189 53 
3 146 29 32 
3 382 88 209 
3 331 316 350 
3 331 353 316 
3 357 367 366 
3 360 357 366 
3 367 374 373 
3 366 367 373 
3 373 407 374 
3 388 92 169 
3 170 65 155 
3 155 65 189 
3 328 203 91 
3 413 421 414 
3 356 331 358 
3 242 328 91 
3 168 343 346 
3 113 198 122 
3 124 113 122 
3 239 200 315 
3 331 356 357 
3 372 26 102 
3 375 372 102 
3 26 163 102 
3 408 372 375 
3 72 87 65 
3 170 72 65 
3 87 184 65 
3 63 108 11 
3 63 29 108 
3 370 285 231 
3 389 370 231 
3 131 18 140 
3 33 63 108 
3 368 306 321 
3 374 113 124 
3 285 324 268 
3 231 285 268 
3 336 272 186 
3 224 155 139 
3 363 369 372 
3 86 193 163 
3 208 63 111 
3 380 305 202 
3 356 357 321 
3 346 354 352 
3 346 168 354 
3 168 359 354 
3 364 290 369 
3 363 364 369 
3 290 371 372 
3 369 290 372 
3 371 70 26 
3 372 371 26 
3 70 188 26 
3 188 54 26 
3 54 163 26 
3 54 86 163 
3 54 28 86 
3 28 38 86 
3 38 197 86 
3 38 104 197 
3 104 218 87 
3 218 160 87 
3 160 184 87 
3 58 240 208 
3 240 37 63 
3 208 240 63 
3 340 64 132 
3 343 168 346 
3 400 367 357 
3 396 400 357 
3 54 292 28 
3 96 103 18 
3 346 168 343 
3 249 137 248 
3 200 209 199 
3 79 222 281 
3 327 308 309 
3 343 346 352 
3 383 388 169 
3 200 88 209 
3 285 186 324 
3 241 48 79 
3 16 100 79 
3 303 100 79 
3 323 105 451 
3 100 303 186 
3 100 16 79 
3 321 353 331 
3 236 285 370 
3 389 231 92 
3 100 285 117 
3 108 63 11 
3 186 303 79 
3 88 382 209 
3 82 236 389 
3 100 241 79 
3 45 72 71 
3 0 169 97 
3 45 137 72 
3 285 100 186 
3 137 45 58 
3 199 378 305 
3 208 137 58 
3 356 331 357 
3 305 380 202 
3 378 349 305 
3 169 92 315 
3 192 262 75 
3 361 192 75 
3 291 202 237 
3 258 293 207 
3 272 79 377 
3 324 186 268 
3 268 186 88 
3 90 389 388 
3 169 315 291 
3 97 169 291 
3 79 320 377 
3 4 383 169 
3 379 317 368 
3 200 202 315 
3 92 239 315 
3 306 353 321 
3 370 389 236 
3 48 222 79 
3 206 361 185 
3 361 206 185 
3 92 231 239 
3 356 321 331 
3 190 171 185 
3 249 190 185 
3 206 198 361 
3 198 192 361 
3 90 388 383 
3 305 124 237 
3 327 311 326 
3 4 90 383 
3 190 249 1 
3 206 361 185 
3 171 206 185 
3 202 305 237 
3 108 29 146 
3 308 310 309 
3 334 100 117 
3 90 82 389 
3 79 336 186 
3 224 53 335 
3 354 381 318 
3 231 268 239 
3 186 272 209 
3 88 186 209 
3 200 199 202 
3 327 326 319 
3 308 327 319 
3 309 311 327 
3 435 443 446 
3 199 305 202 
3 97 171 190 
3 171 97 206 
3 97 291 206 
3 237 198 206 
3 291 237 206 
3 406 124 305 
3 399 402 400 
3 373 374 407 
3 300 304 311 
3 304 313 311 
3 407 213 113 
3 208 111 256 
3 403 402 399 
3 363 403 399 
3 29 128 32 
3 403 375 402 
3 363 399 359 
3 194 192 198 
3 193 86 75 
3 400 213 407 
3 272 336 79 
3 79 281 320 
3 300 302 297 
3 294 298 304 
3 299 322 314 
3 307 299 314 
3 322 384 314 
3 377 281 325 
3 387 377 325 
3 281 377 320 
3 355 358 331 
3 101 102 262 
3 363 375 403 
3 197 204 75 
3 102 101 262 
3 299 384 322 
3 262 163 193 
3 318 343 352 
3 299 322 384 
3 299 393 322 
3 322 393 384 
3 137 208 256 
3 86 197 75 
3 186 79 336 
3 222 264 281 
3 185 361 75 
3 365 360 366 
3 386 392 393 
3 299 386 393 
3 393 392 384 
3 392 394 384 
3 394 398 387 
3 384 394 387 
3 404 377 387 
3 398 404 387 
3 404 209 377 
3 209 272 377 
3 399 400 358 
3 359 399 358 
3 101 163 262 
3 262 193 75 
3 102 101 375 
3 204 72 249 
3 31 148 134 
3 424 437 427 
3 359 358 355 
3 400 402 213 
3 204 249 185 
3 351 317 386 
3 390 351 386 
3 317 392 386 
3 392 317 394 
3 317 395 394 
3 395 397 398 
3 394 395 398 
3 397 405 404 
3 398 397 404 
3 199 209 404 
3 405 199 404 
3 268 88 239 
3 75 204 185 
3 318 352 354 
3 243 18 227 
3 397 385 405 
3 385 199 405 
3 262 192 194 
3 101 262 194 
3 18 131 96 
3 349 378 199 
3 385 349 199 
3 250 158 167 
3 293 250 167 
3 379 362 395 
3 317 379 395 
3 395 362 397 
3 362 365 397 
3 365 401 397 
3 401 349 385 
3 397 401 385 
3 375 194 213 
3 213 194 113 
3 375 101 194 
3 354 352 318 
3 342 343 318 
3 375 213 402 
3 451 261 443 
3 32 250 293 
3 258 32 293 
3 113 194 198 
3 351 409 368 
3 355 331 354 
3 339 340 344 
3 372 375 363 
3 339 344 338 
3 368 321 379 
3 360 362 379 
3 360 365 362 
3 366 365 362 
3 365 366 362 
3 406 349 401 
3 365 406 401 
3 108 258 52 
3 258 108 32 
3 305 349 406 
3 297 302 301 
3 52 251 108 
3 321 360 379 
3 384 325 314 
3 373 406 365 
3 366 373 365 
3 373 349 406 
3 349 373 406 
3 373 124 406 
3 106 105 323 
3 439 434 431 
3 18 243 229 
3 83 57 260 
3 447 83 260 
3 418 425 429 
3 439 441 434 
3 441 442 434 
3 257 106 323 
3 391 425 418 
3 435 437 444 
3 257 323 452 
3 391 418 294 
3 296 440 441 
3 440 296 441 
3 131 59 138 
3 294 413 295 
3 95 30 20 
3 428 432 434 
3 422 424 415 
3 294 420 413 
3 425 296 429 
3 414 422 415 
3 425 121 296 
3 296 440 431 
3 452 323 451 
3 296 83 447 
3 431 441 439 
3 445 444 436 
3 429 296 431 
3 450 56 106 
3 301 121 433 
3 106 257 452 
3 414 415 411 
3 390 413 386 
3 18 229 59 
3 59 229 46 
3 386 414 411 
3 301 433 425 
3 248 256 196 
3 411 416 412 
3 300 391 304 
3 422 436 424 
3 46 229 151 
3 127 121 301 
3 412 419 356 
3 295 413 390 
3 351 390 411 
3 442 56 125 
3 409 351 412 
3 247 243 13 
3 330 172 155 
3 451 118 67 
3 364 44 290 
3 290 44 166 
3 166 210 265 
3 265 210 284 
3 442 436 434 
3 229 99 151 
3 364 449 44 
3 449 283 44 
3 418 420 294 
3 363 449 364 
3 212 284 210 
3 44 210 166 
3 420 428 422 
3 44 212 210 
3 247 229 243 
3 229 247 99 
3 127 266 178 
3 56 450 260 
3 413 420 421 
3 359 168 363 
3 363 168 449 
3 415 424 416 
3 296 447 260 
3 212 220 284 
3 436 437 424 
3 351 411 412 
3 440 441 431 
3 283 212 44 
3 451 67 261 
3 168 173 449 
3 449 173 283 
3 426 342 318 
3 381 426 318 
3 212 348 220 
3 266 127 301 
3 426 338 342 
3 149 283 173 
3 149 212 283 
3 438 338 426 
3 433 121 425 
3 149 183 212 
3 414 421 422 
3 172 170 155 
3 368 317 351 
3 350 381 376 
3 67 259 261 
3 183 112 212 
3 212 112 348 
3 348 112 220 
3 432 431 434 
3 448 339 338 
3 438 448 338 
3 420 431 432 
3 112 221 220 
3 428 420 432 
3 431 432 434 
3 417 381 350 
3 422 428 434 
3 423 426 381 
3 417 423 381 
3 56 260 57 
3 451 105 118 
3 296 260 440 
3 386 413 414 
3 306 350 316 
3 448 341 339 
3 415 416 411 
3 436 444 437 
3 259 341 448 
3 297 425 391 
3 442 125 445 
3 450 106 452 
3 410 350 306 
3 341 259 223 
3 355 417 350 
3 410 355 350 
3 259 64 223 
3 410 356 350 
3 356 410 350 
3 356 355 410 
3 355 419 417 
3 247 13 99 
3 195 112 183 
3 180 112 195 
3 419 355 356 
3 301 425 297 
3 390 386 411 
3 446 259 448 
3 446 261 259 
3 434 436 422 
3 421 420 422 
3 409 410 306 
3 368 409 306 
3 412 356 410 
3 409 412 410 
3 442 445 436 
3 435 423 430 
